<svg width="448" height="306" viewBox="0 0 448 306" fill="none" xmlns="http://www.w3.org/2000/svg">
<rect width="448" height="306" fill="white"/>
<path d="M51 39V276H301" stroke="#232A3D" stroke-width="2"/>
<path d="M151 116.982C151 113.678 148.314 111 145 111C141.686 111 139 113.678 139 116.982C139 120.285 141.686 122.963 145 122.963C148.314 122.963 151 120.285 151 116.982Z" fill="#1F69FF"/>
<path d="M163.184 173.165C162.277 169.987 158.958 168.144 155.771 169.048C152.584 169.952 150.735 173.261 151.642 176.439C152.549 179.616 155.868 181.459 159.055 180.555C162.242 179.651 164.091 176.342 163.184 173.165Z" fill="#1F69FF"/>
<path d="M231.184 185.128C230.277 181.951 226.958 180.108 223.771 181.012C220.584 181.916 218.735 185.225 219.642 188.402C220.549 191.58 223.868 193.423 227.055 192.519C230.242 191.615 232.091 188.306 231.184 185.128Z" fill="#1F69FF"/>
<path d="M220.184 97.7534C219.277 94.5759 215.958 92.7329 212.771 93.6369C209.584 94.5409 207.735 97.8496 208.642 101.027C209.549 104.205 212.868 106.048 216.055 105.144C219.242 104.24 221.091 100.931 220.184 97.7534Z" fill="#1F69FF"/>
<path d="M263.184 215.753C262.277 212.576 258.958 210.733 255.771 211.637C252.584 212.541 250.735 215.85 251.642 219.027C252.549 222.205 255.868 224.048 259.055 223.144C262.242 222.24 264.091 218.931 263.184 215.753Z" fill="#1F69FF"/>
<path d="M88.416 199.33C86.9122 196.386 83.2993 195.215 80.3465 196.715C77.3937 198.214 76.2191 201.816 77.723 204.76C79.2269 207.703 82.8397 208.874 85.7925 207.375C88.7453 205.876 89.9199 202.274 88.416 199.33Z" fill="#1F69FF"/>
<path d="M277.184 108.753C276.277 105.576 272.958 103.733 269.771 104.637C266.584 105.541 264.735 108.85 265.642 112.027C266.549 115.205 269.868 117.048 273.055 116.144C276.242 115.24 278.091 111.931 277.184 108.753Z" fill="#1F69FF"/>
<path d="M86.1838 125.753C85.2771 122.576 81.9582 120.733 78.771 121.637C75.5838 122.541 73.7351 125.85 74.6419 129.027C75.5487 132.205 78.8675 134.048 82.0547 133.144C85.242 132.24 87.0906 128.931 86.1838 125.753Z" fill="#1F69FF"/>
<path d="M184.184 206.753C183.277 203.576 179.958 201.733 176.771 202.637C173.584 203.541 171.735 206.85 172.642 210.027C173.549 213.205 176.868 215.048 180.055 214.144C183.242 213.24 185.091 209.931 184.184 206.753Z" fill="#9B51E0"/>
<path d="M123 57.9817C123 54.6781 120.314 52 117 52C113.686 52 111 54.6781 111 57.9817C111 61.2853 113.686 63.9634 117 63.9634C120.314 63.9634 123 61.2853 123 57.9817Z" fill="#9B51E0"/>
<path d="M135 199.982C135 196.678 132.314 194 129 194C125.686 194 123 196.678 123 199.982C123 203.285 125.686 205.963 129 205.963C132.314 205.963 135 203.285 135 199.982Z" fill="#9B51E0"/>
<path d="M221 57.9817C221 54.6781 218.314 52 215 52C211.686 52 209 54.6781 209 57.9817C209 61.2853 211.686 63.9634 215 63.9634C218.314 63.9634 221 61.2853 221 57.9817Z" fill="#9B51E0"/>
<path d="M104 153.982C104 150.678 101.314 148 98 148C94.6863 148 92 150.678 92 153.982C92 157.285 94.6863 159.963 98 159.963C101.314 159.963 104 157.285 104 153.982Z" fill="#9B51E0"/>
<path d="M245 230.982C245 227.678 242.314 225 239 225C235.686 225 233 227.678 233 230.982C233 234.285 235.686 236.963 239 236.963C242.314 236.963 245 234.285 245 230.982Z" fill="#9B51E0"/>
<path d="M106 98.9817C106 95.6781 103.314 93 100 93C96.6863 93 94 95.6781 94 98.9817C94 102.285 96.6863 104.963 100 104.963C103.314 104.963 106 102.285 106 98.9817Z" fill="#9B51E0"/>
<path d="M247 86.9817C247 83.6781 244.314 81 241 81C237.686 81 235 83.6781 235 86.9817C235 90.2853 237.686 92.9634 241 92.9634C244.314 92.9634 247 90.2853 247 86.9817Z" fill="#9B51E0"/>
<path d="M270 136.982C270 133.678 267.314 131 264 131C260.686 131 258 133.678 258 136.982C258 140.285 260.686 142.963 264 142.963C267.314 142.963 270 140.285 270 136.982Z" fill="#9B51E0"/>
<path d="M280 187.982C280 184.678 277.314 182 274 182C270.686 182 268 184.678 268 187.982C268 191.285 270.686 193.963 274 193.963C277.314 193.963 280 191.285 280 187.982Z" fill="#9B51E0"/>
<path d="M220 140.982C220 137.678 217.314 135 214 135C210.686 135 208 137.678 208 140.982C208 144.285 210.686 146.963 214 146.963C217.314 146.963 220 144.285 220 140.982Z" fill="#9B51E0"/>
<path d="M177 73.9817C177 70.6781 174.314 68 171 68C167.686 68 165 70.6781 165 73.9817C165 77.2853 167.686 79.9634 171 79.9634C174.314 79.9634 177 77.2853 177 73.9817Z" fill="#9B51E0"/>
<path d="M83 236.982C83 233.678 80.3137 231 77 231C73.6863 231 71 233.678 71 236.982C71 240.285 73.6863 242.963 77 242.963C80.3137 242.963 83 240.285 83 236.982Z" fill="#9B51E0"/>
<path d="M152 252.982C152 249.678 149.314 247 146 247C142.686 247 140 249.678 140 252.982C140 256.285 142.686 258.963 146 258.963C149.314 258.963 152 256.285 152 252.982Z" fill="#9B51E0"/>
<path d="M198 258.982C198 255.678 195.314 253 192 253C188.686 253 186 255.678 186 258.982C186 262.285 188.686 264.963 192 264.963C195.314 264.963 198 262.285 198 258.982Z" fill="#9B51E0"/>
<rect x="301.5" y="52.5" width="19" height="19" fill="#1F69FF" stroke="black"/>
<rect x="301.5" y="25.5" width="19" height="19" fill="#9B51E0" stroke="black"/>
<path d="M332.647 39.144C332.095 39.144 331.567 39.044 331.063 38.844C330.559 38.644 330.111 38.36 329.719 37.992L330.535 37.044C330.831 37.308 331.167 37.524 331.543 37.692C331.919 37.852 332.315 37.932 332.731 37.932C333.187 37.932 333.535 37.844 333.775 37.668C334.015 37.484 334.135 37.256 334.135 36.984C334.135 36.752 334.079 36.568 333.967 36.432C333.855 36.288 333.699 36.168 333.499 36.072C333.307 35.976 333.079 35.876 332.815 35.772L331.747 35.304C331.475 35.192 331.207 35.048 330.943 34.872C330.687 34.696 330.475 34.472 330.307 34.2C330.147 33.928 330.067 33.6 330.067 33.216C330.067 32.8 330.183 32.428 330.415 32.1C330.647 31.764 330.967 31.5 331.375 31.308C331.791 31.108 332.263 31.008 332.791 31.008C333.271 31.008 333.727 31.1 334.159 31.284C334.599 31.46 334.983 31.7 335.311 32.004L334.591 32.892C334.327 32.676 334.047 32.512 333.751 32.4C333.463 32.28 333.119 32.22 332.719 32.22C332.351 32.22 332.051 32.3 331.819 32.46C331.587 32.62 331.471 32.848 331.471 33.144C331.471 33.344 331.535 33.508 331.663 33.636C331.791 33.764 331.955 33.876 332.155 33.972C332.363 34.068 332.583 34.16 332.815 34.248L333.847 34.692C334.183 34.82 334.479 34.976 334.735 35.16C334.991 35.344 335.191 35.572 335.335 35.844C335.479 36.108 335.551 36.432 335.551 36.816C335.551 37.24 335.435 37.628 335.203 37.98C334.971 38.332 334.639 38.616 334.207 38.832C333.775 39.04 333.255 39.144 332.647 39.144ZM339.027 39.144C338.339 39.144 337.839 38.936 337.527 38.52C337.215 38.104 337.059 37.516 337.059 36.756V33.108H338.439V36.576C338.439 37.048 338.519 37.396 338.679 37.62C338.847 37.844 339.135 37.956 339.543 37.956C339.815 37.956 340.063 37.892 340.287 37.764C340.519 37.628 340.763 37.4 341.019 37.08V33.108H342.399V39H341.271L341.163 38.064H341.115C340.835 38.384 340.527 38.644 340.191 38.844C339.855 39.044 339.467 39.144 339.027 39.144ZM347.362 39.144C347.082 39.144 346.79 39.076 346.486 38.94C346.19 38.804 345.91 38.608 345.646 38.352H345.61L345.49 39H344.398V30.528H345.79V32.712L345.73 33.744H345.766C346.014 33.504 346.294 33.316 346.606 33.18C346.926 33.036 347.246 32.964 347.566 32.964C348.078 32.964 348.51 33.088 348.862 33.336C349.222 33.584 349.498 33.932 349.69 34.38C349.882 34.82 349.978 35.344 349.978 35.952C349.978 36.624 349.854 37.2 349.606 37.68C349.358 38.152 349.034 38.516 348.634 38.772C348.242 39.02 347.818 39.144 347.362 39.144ZM347.086 38.004C347.358 38.004 347.606 37.928 347.83 37.776C348.054 37.624 348.23 37.4 348.358 37.104C348.486 36.8 348.55 36.424 348.55 35.976C348.55 35.584 348.502 35.248 348.406 34.968C348.31 34.688 348.162 34.476 347.962 34.332C347.77 34.18 347.51 34.104 347.182 34.104C346.958 34.104 346.73 34.16 346.498 34.272C346.266 34.384 346.03 34.564 345.79 34.812V37.464C346.006 37.656 346.23 37.796 346.462 37.884C346.694 37.964 346.902 38.004 347.086 38.004ZM354.245 39.144C353.693 39.144 353.165 39.056 352.661 38.88C352.157 38.696 351.721 38.48 351.353 38.232L351.953 37.356C352.305 37.588 352.685 37.772 353.093 37.908C353.501 38.036 353.945 38.1 354.425 38.1C354.833 38.1 355.133 38.032 355.325 37.896C355.525 37.752 355.625 37.584 355.625 37.392C355.625 37.296 355.601 37.208 355.553 37.128C355.513 37.048 355.437 36.976 355.325 36.912C355.213 36.84 355.049 36.772 354.833 36.708C354.617 36.644 354.337 36.576 353.993 36.504C353.209 36.336 352.633 36.108 352.265 35.82C351.897 35.532 351.713 35.168 351.713 34.728C351.713 34.208 351.937 33.784 352.385 33.456C352.841 33.128 353.481 32.964 354.305 32.964C354.793 32.964 355.249 33.044 355.673 33.204C356.105 33.364 356.469 33.544 356.765 33.744L356.129 34.596C355.849 34.404 355.541 34.26 355.205 34.164C354.869 34.06 354.529 34.008 354.185 34.008C353.921 34.008 353.709 34.036 353.549 34.092C353.397 34.148 353.281 34.228 353.201 34.332C353.129 34.428 353.093 34.536 353.093 34.656C353.093 34.864 353.213 35.02 353.453 35.124C353.693 35.228 354.085 35.34 354.629 35.46C355.261 35.596 355.749 35.752 356.093 35.928C356.437 36.096 356.673 36.292 356.801 36.516C356.937 36.732 357.005 37 357.005 37.32C357.005 37.656 356.897 37.964 356.681 38.244C356.473 38.516 356.165 38.736 355.757 38.904C355.349 39.064 354.845 39.144 354.245 39.144ZM361.933 39.144C361.317 39.144 360.761 39.024 360.265 38.784C359.777 38.536 359.389 38.184 359.101 37.728C358.821 37.264 358.681 36.708 358.681 36.06C358.681 35.404 358.833 34.848 359.137 34.392C359.449 33.928 359.861 33.576 360.373 33.336C360.885 33.088 361.437 32.964 362.029 32.964C362.509 32.964 362.933 33.044 363.301 33.204C363.669 33.356 363.973 33.552 364.213 33.792L363.553 34.656C363.321 34.472 363.085 34.332 362.845 34.236C362.613 34.14 362.365 34.092 362.101 34.092C361.709 34.092 361.361 34.176 361.057 34.344C360.761 34.504 360.529 34.732 360.361 35.028C360.193 35.324 360.109 35.668 360.109 36.06C360.109 36.452 360.189 36.796 360.349 37.092C360.517 37.388 360.745 37.616 361.033 37.776C361.329 37.936 361.673 38.016 362.065 38.016C362.401 38.016 362.709 37.952 362.989 37.824C363.269 37.696 363.521 37.544 363.745 37.368L364.321 38.256C363.985 38.544 363.609 38.764 363.193 38.916C362.777 39.068 362.357 39.144 361.933 39.144ZM366.56 39V33.108H367.7L367.82 34.44H367.856C368.152 33.96 368.516 33.596 368.948 33.348C369.388 33.092 369.86 32.964 370.364 32.964C370.604 32.964 370.812 32.984 370.988 33.024C371.164 33.064 371.336 33.124 371.504 33.204L371.216 34.368C371.024 34.304 370.852 34.26 370.7 34.236C370.556 34.204 370.372 34.188 370.148 34.188C369.748 34.188 369.356 34.304 368.972 34.536C368.596 34.768 368.256 35.172 367.952 35.748V39H366.56ZM375.759 39V34.2H373.203V33.108H377.139V39H375.759ZM376.347 32.028C376.067 32.028 375.831 31.944 375.639 31.776C375.455 31.608 375.363 31.384 375.363 31.104C375.363 30.824 375.455 30.6 375.639 30.432C375.831 30.256 376.067 30.168 376.347 30.168C376.635 30.168 376.871 30.256 377.055 30.432C377.239 30.6 377.331 30.824 377.331 31.104C377.331 31.384 377.239 31.608 377.055 31.776C376.871 31.944 376.635 32.028 376.347 32.028ZM383.339 39.144C383.059 39.144 382.767 39.076 382.463 38.94C382.167 38.804 381.887 38.608 381.623 38.352H381.587L381.467 39H380.375V30.528H381.767V32.712L381.707 33.744H381.743C381.991 33.504 382.271 33.316 382.583 33.18C382.903 33.036 383.223 32.964 383.543 32.964C384.055 32.964 384.487 33.088 384.839 33.336C385.199 33.584 385.475 33.932 385.667 34.38C385.859 34.82 385.955 35.344 385.955 35.952C385.955 36.624 385.831 37.2 385.583 37.68C385.335 38.152 385.011 38.516 384.611 38.772C384.219 39.02 383.795 39.144 383.339 39.144ZM383.063 38.004C383.335 38.004 383.583 37.928 383.807 37.776C384.031 37.624 384.207 37.4 384.335 37.104C384.463 36.8 384.527 36.424 384.527 35.976C384.527 35.584 384.479 35.248 384.383 34.968C384.287 34.688 384.139 34.476 383.939 34.332C383.747 34.18 383.487 34.104 383.159 34.104C382.935 34.104 382.707 34.16 382.475 34.272C382.243 34.384 382.007 34.564 381.767 34.812V37.464C381.983 37.656 382.207 37.796 382.439 37.884C382.671 37.964 382.879 38.004 383.063 38.004ZM390.546 39.144C389.946 39.144 389.402 39.024 388.914 38.784C388.426 38.536 388.038 38.184 387.75 37.728C387.462 37.264 387.318 36.704 387.318 36.048C387.318 35.408 387.462 34.86 387.75 34.404C388.038 33.94 388.414 33.584 388.878 33.336C389.342 33.088 389.838 32.964 390.366 32.964C390.95 32.964 391.442 33.084 391.842 33.324C392.25 33.564 392.558 33.896 392.766 34.32C392.982 34.736 393.09 35.216 393.09 35.76C393.09 35.896 393.082 36.028 393.066 36.156C393.058 36.276 393.046 36.376 393.03 36.456H388.314V35.472H392.142L391.878 35.784C391.878 35.2 391.746 34.764 391.482 34.476C391.226 34.18 390.866 34.032 390.402 34.032C390.074 34.032 389.778 34.108 389.514 34.26C389.258 34.412 389.054 34.64 388.902 34.944C388.75 35.24 388.674 35.608 388.674 36.048C388.674 36.504 388.758 36.88 388.926 37.176C389.102 37.472 389.342 37.696 389.646 37.848C389.958 38 390.318 38.076 390.726 38.076C391.038 38.076 391.326 38.032 391.59 37.944C391.854 37.856 392.118 37.736 392.382 37.584L392.85 38.448C392.538 38.648 392.186 38.816 391.794 38.952C391.402 39.08 390.986 39.144 390.546 39.144ZM396.937 39.144C396.185 39.144 395.577 38.872 395.113 38.328C394.649 37.784 394.417 37.028 394.417 36.06C394.417 35.42 394.541 34.868 394.789 34.404C395.037 33.94 395.361 33.584 395.761 33.336C396.161 33.088 396.581 32.964 397.021 32.964C397.357 32.964 397.653 33.024 397.909 33.144C398.173 33.264 398.417 33.436 398.641 33.66H398.677L398.605 32.664V30.528H399.997V39H398.857L398.749 38.316H398.713C398.489 38.54 398.221 38.736 397.909 38.904C397.597 39.064 397.273 39.144 396.937 39.144ZM397.273 38.004C397.513 38.004 397.745 37.948 397.969 37.836C398.193 37.716 398.405 37.536 398.605 37.296V34.644C398.397 34.444 398.189 34.304 397.981 34.224C397.773 34.144 397.561 34.104 397.345 34.104C397.073 34.104 396.821 34.18 396.589 34.332C396.365 34.484 396.185 34.704 396.049 34.992C395.913 35.28 395.845 35.632 395.845 36.048C395.845 36.68 395.969 37.164 396.217 37.5C396.473 37.836 396.825 38.004 397.273 38.004Z" fill="#9B51E0"/>
<path d="M313.429 280L316.821 269.536H318.997L322.389 280H320.421L318.837 274.432C318.688 273.877 318.528 273.307 318.357 272.72C318.197 272.133 318.048 271.552 317.909 270.976H317.845C317.696 271.552 317.541 272.133 317.381 272.72C317.232 273.307 317.077 273.877 316.917 274.432L315.317 280H313.429ZM315.429 277.168V275.712H320.341V277.168H315.429ZM327.279 283.472C326.554 283.472 325.924 283.392 325.391 283.232C324.858 283.083 324.442 282.853 324.143 282.544C323.844 282.235 323.695 281.845 323.695 281.376C323.695 281.067 323.802 280.768 324.015 280.48C324.228 280.192 324.538 279.941 324.943 279.728V279.664C324.74 279.536 324.554 279.371 324.383 279.168C324.223 278.955 324.143 278.683 324.143 278.352C324.143 278.096 324.228 277.835 324.399 277.568C324.57 277.301 324.799 277.072 325.087 276.88V276.816C324.81 276.613 324.57 276.341 324.367 276C324.175 275.648 324.079 275.243 324.079 274.784C324.079 274.176 324.228 273.664 324.527 273.248C324.826 272.821 325.22 272.501 325.711 272.288C326.202 272.064 326.735 271.952 327.311 271.952C327.78 271.952 328.191 272.016 328.543 272.144H331.759V273.552H329.951C330.09 273.701 330.207 273.893 330.303 274.128C330.41 274.352 330.463 274.592 330.463 274.848C330.463 275.424 330.319 275.915 330.031 276.32C329.754 276.715 329.38 277.013 328.911 277.216C328.442 277.419 327.908 277.52 327.311 277.52C327.13 277.52 326.932 277.504 326.719 277.472C326.516 277.429 326.314 277.371 326.111 277.296C325.951 277.392 325.828 277.499 325.743 277.616C325.668 277.733 325.631 277.872 325.631 278.032C325.631 278.277 325.754 278.464 325.999 278.592C326.255 278.709 326.628 278.768 327.119 278.768H328.719C329.743 278.768 330.511 278.917 331.023 279.216C331.546 279.504 331.807 279.995 331.807 280.688C331.807 281.2 331.62 281.669 331.247 282.096C330.884 282.523 330.362 282.859 329.679 283.104C329.007 283.349 328.207 283.472 327.279 283.472ZM327.311 276.352C327.588 276.352 327.839 276.293 328.063 276.176C328.287 276.048 328.463 275.867 328.591 275.632C328.73 275.397 328.799 275.115 328.799 274.784C328.799 274.464 328.73 274.192 328.591 273.968C328.463 273.733 328.287 273.552 328.063 273.424C327.839 273.296 327.588 273.232 327.311 273.232C327.044 273.232 326.799 273.296 326.575 273.424C326.351 273.552 326.17 273.733 326.031 273.968C325.892 274.192 325.823 274.464 325.823 274.784C325.823 275.115 325.892 275.397 326.031 275.632C326.17 275.867 326.351 276.048 326.575 276.176C326.799 276.293 327.044 276.352 327.311 276.352ZM327.503 282.256C328.015 282.256 328.458 282.197 328.831 282.08C329.215 281.963 329.508 281.808 329.711 281.616C329.924 281.424 330.031 281.216 330.031 280.992C330.031 280.683 329.898 280.475 329.631 280.368C329.375 280.272 328.98 280.224 328.447 280.224H327.199C326.943 280.224 326.719 280.213 326.527 280.192C326.335 280.171 326.159 280.144 325.999 280.112C325.722 280.272 325.524 280.437 325.407 280.608C325.29 280.779 325.231 280.955 325.231 281.136C325.231 281.488 325.428 281.76 325.823 281.952C326.218 282.155 326.778 282.256 327.503 282.256ZM337.577 280.192C336.777 280.192 336.052 280.032 335.401 279.712C334.75 279.381 334.233 278.912 333.849 278.304C333.465 277.685 333.273 276.939 333.273 276.064C333.273 275.211 333.465 274.48 333.849 273.872C334.233 273.253 334.734 272.779 335.353 272.448C335.972 272.117 336.633 271.952 337.337 271.952C338.116 271.952 338.772 272.112 339.305 272.432C339.849 272.752 340.26 273.195 340.537 273.76C340.825 274.315 340.969 274.955 340.969 275.68C340.969 275.861 340.958 276.037 340.937 276.208C340.926 276.368 340.91 276.501 340.889 276.608H334.601V275.296H339.705L339.353 275.712C339.353 274.933 339.177 274.352 338.825 273.968C338.484 273.573 338.004 273.376 337.385 273.376C336.948 273.376 336.553 273.477 336.201 273.68C335.86 273.883 335.588 274.187 335.385 274.592C335.182 274.987 335.081 275.477 335.081 276.064C335.081 276.672 335.193 277.173 335.417 277.568C335.652 277.963 335.972 278.261 336.377 278.464C336.793 278.667 337.273 278.768 337.817 278.768C338.233 278.768 338.617 278.709 338.969 278.592C339.321 278.475 339.673 278.315 340.025 278.112L340.649 279.264C340.233 279.531 339.764 279.755 339.241 279.936C338.718 280.107 338.164 280.192 337.577 280.192Z" fill="#232A3D"/>
<path d="M18.789 27.192C18.1383 27.192 17.525 27.0747 16.949 26.84C16.3837 26.6053 15.8823 26.2587 15.445 25.8C15.0183 25.3413 14.6823 24.776 14.437 24.104C14.2023 23.432 14.085 22.664 14.085 21.8C14.085 20.6587 14.293 19.6827 14.709 18.872C15.1357 18.0507 15.7117 17.4267 16.437 17C17.173 16.5627 17.9997 16.344 18.917 16.344C19.5677 16.344 20.149 16.4773 20.661 16.744C21.173 17.0107 21.589 17.3147 21.909 17.656L20.885 18.808C20.629 18.5413 20.341 18.3333 20.021 18.184C19.701 18.0347 19.333 17.96 18.917 17.96C18.341 17.96 17.829 18.1147 17.381 18.424C16.9437 18.7227 16.6023 19.1547 16.357 19.72C16.1117 20.2853 15.989 20.9627 15.989 21.752C15.989 22.5413 16.1117 23.224 16.357 23.8C16.6023 24.376 16.949 24.8187 17.397 25.128C17.845 25.4267 18.3677 25.576 18.965 25.576C19.4023 25.576 19.7917 25.4853 20.133 25.304C20.4743 25.112 20.7943 24.856 21.093 24.536L22.117 25.672C21.701 26.1627 21.2157 26.5413 20.661 26.808C20.1063 27.064 19.4823 27.192 18.789 27.192ZM26.4788 27.192C25.9668 27.192 25.5134 27.096 25.1188 26.904C24.7241 26.7013 24.4148 26.4293 24.1908 26.088C23.9668 25.7467 23.8548 25.3467 23.8548 24.888C23.8548 24.0133 24.2708 23.3467 25.1028 22.888C25.9454 22.4187 27.3374 22.1147 29.2788 21.976C29.2574 21.688 29.1774 21.4267 29.0388 21.192C28.9108 20.9573 28.7134 20.776 28.4468 20.648C28.1801 20.5093 27.8334 20.44 27.4068 20.44C27.1081 20.44 26.8148 20.4773 26.5268 20.552C26.2388 20.6267 25.9508 20.728 25.6628 20.856C25.3854 20.984 25.1081 21.1227 24.8307 21.272L24.1588 20.04C24.4788 19.848 24.8308 19.672 25.2148 19.512C25.5988 19.3413 26.0041 19.208 26.4308 19.112C26.8574 19.0053 27.2948 18.952 27.7428 18.952C28.4788 18.952 29.0921 19.0853 29.5828 19.352C30.0841 19.608 30.4628 19.992 30.7188 20.504C30.9854 21.0053 31.1188 21.6187 31.1188 22.344V27H29.6148L29.4708 26.024H29.4228C29.0068 26.344 28.5428 26.6213 28.0308 26.856C27.5294 27.08 27.0121 27.192 26.4788 27.192ZM27.0388 25.752C27.4334 25.752 27.8121 25.6667 28.1748 25.496C28.5481 25.3147 28.9161 25.08 29.2788 24.792V23.128C28.3401 23.192 27.6041 23.2987 27.0708 23.448C26.5374 23.5867 26.1641 23.768 25.9508 23.992C25.7374 24.216 25.6308 24.4667 25.6308 24.744C25.6308 24.9787 25.6948 25.1707 25.8228 25.32C25.9508 25.4693 26.1161 25.5813 26.3188 25.656C26.5321 25.72 26.7721 25.752 27.0388 25.752ZM33.0485 27V19.144H34.4725L34.6165 20.136H34.6645C34.8352 19.7947 35.0538 19.512 35.3205 19.288C35.5872 19.064 35.9498 18.952 36.4085 18.952C36.7712 18.952 37.0752 19.064 37.3205 19.288C37.5658 19.5013 37.7365 19.8267 37.8325 20.264C38.0138 19.88 38.2432 19.5653 38.5205 19.32C38.7978 19.0747 39.1658 18.952 39.6245 18.952C40.1792 18.952 40.6058 19.1707 40.9045 19.608C41.2138 20.0347 41.3685 20.6427 41.3685 21.432V27H39.5925V21.56C39.5925 20.8667 39.3845 20.52 38.9685 20.52C38.7552 20.52 38.5738 20.6 38.4245 20.76C38.2858 20.92 38.1365 21.1707 37.9765 21.512V27H36.4405V21.56C36.4405 21.2187 36.3925 20.9627 36.2965 20.792C36.2005 20.6107 36.0405 20.52 35.8165 20.52C35.6138 20.52 35.4378 20.6 35.2885 20.76C35.1392 20.92 34.9898 21.1707 34.8405 21.512V27H33.0485ZM43.2183 30.104V19.144H44.7383L44.8823 20.04H44.9303C45.2716 19.72 45.6609 19.4587 46.0983 19.256C46.5463 19.0533 46.9943 18.952 47.4423 18.952C48.1356 18.952 48.7169 19.1173 49.1863 19.448C49.6556 19.7787 50.0183 20.2427 50.2743 20.84C50.5303 21.4373 50.6583 22.1413 50.6583 22.952C50.6583 23.848 50.4929 24.6107 50.1623 25.24C49.8316 25.8693 49.3996 26.3547 48.8663 26.696C48.3436 27.0267 47.7783 27.192 47.1703 27.192C46.8183 27.192 46.4503 27.112 46.0663 26.952C45.6929 26.792 45.3463 26.5627 45.0263 26.264H44.9783L45.0743 27.64V30.104H43.2183ZM46.7863 25.672C47.1596 25.672 47.4956 25.5707 47.7943 25.368C48.0929 25.1653 48.3276 24.8667 48.4983 24.472C48.6689 24.0667 48.7543 23.5653 48.7543 22.968C48.7543 22.4453 48.6903 21.9973 48.5623 21.624C48.4343 21.2507 48.2369 20.968 47.9703 20.776C47.7143 20.5733 47.3676 20.472 46.9303 20.472C46.6316 20.472 46.3276 20.5467 46.0182 20.696C45.7089 20.8453 45.3943 21.0853 45.0743 21.416V24.952C45.3623 25.208 45.6609 25.3947 45.9703 25.512C46.2796 25.6187 46.5516 25.672 46.7863 25.672ZM55.26 27.192C54.748 27.192 54.2947 27.096 53.9 26.904C53.5053 26.7013 53.196 26.4293 52.972 26.088C52.748 25.7467 52.636 25.3467 52.636 24.888C52.636 24.0133 53.052 23.3467 53.884 22.888C54.7267 22.4187 56.1187 22.1147 58.06 21.976C58.0387 21.688 57.9587 21.4267 57.82 21.192C57.692 20.9573 57.4947 20.776 57.228 20.648C56.9613 20.5093 56.6147 20.44 56.188 20.44C55.8893 20.44 55.596 20.4773 55.308 20.552C55.02 20.6267 54.732 20.728 54.444 20.856C54.1667 20.984 53.8893 21.1227 53.612 21.272L52.94 20.04C53.26 19.848 53.612 19.672 53.996 19.512C54.38 19.3413 54.7853 19.208 55.212 19.112C55.6387 19.0053 56.076 18.952 56.524 18.952C57.26 18.952 57.8733 19.0853 58.364 19.352C58.8653 19.608 59.244 19.992 59.5 20.504C59.7667 21.0053 59.9 21.6187 59.9 22.344V27H58.396L58.252 26.024H58.204C57.788 26.344 57.324 26.6213 56.812 26.856C56.3107 27.08 55.7933 27.192 55.26 27.192ZM55.82 25.752C56.2147 25.752 56.5933 25.6667 56.956 25.496C57.3293 25.3147 57.6973 25.08 58.06 24.792V23.128C57.1213 23.192 56.3853 23.2987 55.852 23.448C55.3187 23.5867 54.9453 23.768 54.732 23.992C54.5187 24.216 54.412 24.4667 54.412 24.744C54.412 24.9787 54.476 25.1707 54.604 25.32C54.732 25.4693 54.8973 25.5813 55.1 25.656C55.3133 25.72 55.5533 25.752 55.82 25.752ZM65.8458 27V20.6H62.4378V19.144H67.6858V27H65.8458ZM66.6298 17.704C66.2564 17.704 65.9418 17.592 65.6858 17.368C65.4404 17.144 65.3177 16.8453 65.3177 16.472C65.3177 16.0987 65.4404 15.8 65.6858 15.576C65.9418 15.3413 66.2564 15.224 66.6298 15.224C67.0138 15.224 67.3284 15.3413 67.5738 15.576C67.8191 15.8 67.9418 16.0987 67.9418 16.472C67.9418 16.8453 67.8191 17.144 67.5738 17.368C67.3284 17.592 67.0138 17.704 66.6298 17.704ZM75.2635 30.472C74.5382 30.472 73.9088 30.392 73.3755 30.232C72.8422 30.0827 72.4262 29.8533 72.1275 29.544C71.8288 29.2347 71.6795 28.8453 71.6795 28.376C71.6795 28.0667 71.7862 27.768 71.9995 27.48C72.2128 27.192 72.5222 26.9413 72.9275 26.728V26.664C72.7248 26.536 72.5382 26.3707 72.3675 26.168C72.2075 25.9547 72.1275 25.6827 72.1275 25.352C72.1275 25.096 72.2128 24.8347 72.3835 24.568C72.5542 24.3013 72.7835 24.072 73.0715 23.88V23.816C72.7942 23.6133 72.5542 23.3413 72.3515 23C72.1595 22.648 72.0635 22.2427 72.0635 21.784C72.0635 21.176 72.2128 20.664 72.5115 20.248C72.8102 19.8213 73.2048 19.5013 73.6955 19.288C74.1862 19.064 74.7195 18.952 75.2955 18.952C75.7648 18.952 76.1755 19.016 76.5275 19.144H79.7435V20.552H77.9355C78.0742 20.7013 78.1915 20.8933 78.2875 21.128C78.3942 21.352 78.4475 21.592 78.4475 21.848C78.4475 22.424 78.3035 22.9147 78.0155 23.32C77.7382 23.7147 77.3648 24.0133 76.8955 24.216C76.4262 24.4187 75.8928 24.52 75.2955 24.52C75.1142 24.52 74.9168 24.504 74.7035 24.472C74.5008 24.4293 74.2982 24.3707 74.0955 24.296C73.9355 24.392 73.8128 24.4987 73.7275 24.616C73.6528 24.7333 73.6155 24.872 73.6155 25.032C73.6155 25.2773 73.7382 25.464 73.9835 25.592C74.2395 25.7093 74.6128 25.768 75.1035 25.768H76.7035C77.7275 25.768 78.4955 25.9173 79.0075 26.216C79.5302 26.504 79.7915 26.9947 79.7915 27.688C79.7915 28.2 79.6048 28.6693 79.2315 29.096C78.8688 29.5227 78.3462 29.8587 77.6635 30.104C76.9915 30.3493 76.1915 30.472 75.2635 30.472ZM75.2955 23.352C75.5728 23.352 75.8235 23.2933 76.0475 23.176C76.2715 23.048 76.4475 22.8667 76.5755 22.632C76.7142 22.3973 76.7835 22.1147 76.7835 21.784C76.7835 21.464 76.7142 21.192 76.5755 20.968C76.4475 20.7333 76.2715 20.552 76.0475 20.424C75.8235 20.296 75.5728 20.232 75.2955 20.232C75.0288 20.232 74.7835 20.296 74.5595 20.424C74.3355 20.552 74.1542 20.7333 74.0155 20.968C73.8768 21.192 73.8075 21.464 73.8075 21.784C73.8075 22.1147 73.8768 22.3973 74.0155 22.632C74.1542 22.8667 74.3355 23.048 74.5595 23.176C74.7835 23.2933 75.0288 23.352 75.2955 23.352ZM75.4875 29.256C75.9995 29.256 76.4422 29.1973 76.8155 29.08C77.1995 28.9627 77.4928 28.808 77.6955 28.616C77.9088 28.424 78.0155 28.216 78.0155 27.992C78.0155 27.6827 77.8822 27.4747 77.6155 27.368C77.3595 27.272 76.9648 27.224 76.4315 27.224H75.1835C74.9275 27.224 74.7035 27.2133 74.5115 27.192C74.3195 27.1707 74.1435 27.144 73.9835 27.112C73.7062 27.272 73.5088 27.4373 73.3915 27.608C73.2742 27.7787 73.2155 27.9547 73.2155 28.136C73.2155 28.488 73.4128 28.76 73.8075 28.952C74.2022 29.1547 74.7622 29.256 75.4875 29.256ZM81.5933 27V19.144H83.1133L83.2573 20.328H83.3213C83.6946 19.944 84.1053 19.6187 84.5533 19.352C85.0119 19.0853 85.5453 18.952 86.1533 18.952C87.0599 18.952 87.7266 19.2293 88.1533 19.784C88.5799 20.3387 88.7933 21.1227 88.7933 22.136V27H86.9373V22.376C86.9373 21.7467 86.8253 21.2827 86.6013 20.984C86.3773 20.6853 85.9986 20.536 85.4653 20.536C85.0813 20.536 84.7399 20.6267 84.4413 20.808C84.1426 20.9893 83.8119 21.2667 83.4493 21.64V27H81.5933Z" fill="#232A3D"/>
<path d="M330.021 66V58.152H331.485L333.561 62.556L334.269 64.236H334.305C334.281 63.836 334.241 63.4 334.185 62.928C334.137 62.456 334.113 62 334.113 61.56V58.152H335.445V66H333.981L331.905 61.584L331.197 59.916H331.161C331.185 60.332 331.221 60.772 331.269 61.236C331.325 61.692 331.353 62.136 331.353 62.568V66H330.021ZM339.928 66.144C339.408 66.144 338.924 66.024 338.476 65.784C338.028 65.536 337.664 65.184 337.384 64.728C337.104 64.264 336.964 63.708 336.964 63.06C336.964 62.404 337.104 61.848 337.384 61.392C337.664 60.928 338.028 60.576 338.476 60.336C338.924 60.088 339.408 59.964 339.928 59.964C340.448 59.964 340.932 60.088 341.38 60.336C341.828 60.576 342.192 60.928 342.472 61.392C342.752 61.848 342.892 62.404 342.892 63.06C342.892 63.708 342.752 64.264 342.472 64.728C342.192 65.184 341.828 65.536 341.38 65.784C340.932 66.024 340.448 66.144 339.928 66.144ZM339.928 65.016C340.248 65.016 340.524 64.936 340.756 64.776C340.988 64.616 341.164 64.388 341.284 64.092C341.404 63.796 341.464 63.452 341.464 63.06C341.464 62.668 341.404 62.324 341.284 62.028C341.164 61.732 340.988 61.504 340.756 61.344C340.524 61.176 340.248 61.092 339.928 61.092C339.608 61.092 339.332 61.176 339.1 61.344C338.876 61.504 338.7 61.732 338.572 62.028C338.452 62.324 338.392 62.668 338.392 63.06C338.392 63.452 338.452 63.796 338.572 64.092C338.7 64.388 338.876 64.616 339.1 64.776C339.332 64.936 339.608 65.016 339.928 65.016ZM348.215 66.144C347.615 66.144 347.139 66.04 346.787 65.832C346.435 65.616 346.183 65.32 346.031 64.944C345.879 64.568 345.803 64.132 345.803 63.636V61.2H344.231V60.168L345.863 60.108L346.043 58.26H347.183V60.108H349.871V61.2H347.183V63.624C347.183 63.944 347.227 64.212 347.315 64.428C347.403 64.636 347.547 64.792 347.747 64.896C347.947 64.992 348.211 65.04 348.539 65.04C348.795 65.04 349.027 65.02 349.235 64.98C349.443 64.94 349.643 64.884 349.835 64.812L350.099 65.808C349.835 65.896 349.551 65.972 349.247 66.036C348.943 66.108 348.599 66.144 348.215 66.144ZM361.538 66.144C360.986 66.144 360.458 66.044 359.954 65.844C359.45 65.644 359.002 65.36 358.61 64.992L359.426 64.044C359.722 64.308 360.058 64.524 360.434 64.692C360.81 64.852 361.206 64.932 361.622 64.932C362.078 64.932 362.426 64.844 362.666 64.668C362.906 64.484 363.026 64.256 363.026 63.984C363.026 63.752 362.97 63.568 362.858 63.432C362.746 63.288 362.59 63.168 362.39 63.072C362.198 62.976 361.97 62.876 361.706 62.772L360.638 62.304C360.366 62.192 360.098 62.048 359.834 61.872C359.578 61.696 359.366 61.472 359.198 61.2C359.038 60.928 358.958 60.6 358.958 60.216C358.958 59.8 359.074 59.428 359.306 59.1C359.538 58.764 359.858 58.5 360.266 58.308C360.682 58.108 361.154 58.008 361.682 58.008C362.162 58.008 362.618 58.1 363.05 58.284C363.49 58.46 363.874 58.7 364.202 59.004L363.482 59.892C363.218 59.676 362.938 59.512 362.642 59.4C362.354 59.28 362.01 59.22 361.61 59.22C361.242 59.22 360.942 59.3 360.71 59.46C360.478 59.62 360.362 59.848 360.362 60.144C360.362 60.344 360.426 60.508 360.554 60.636C360.682 60.764 360.846 60.876 361.046 60.972C361.254 61.068 361.474 61.16 361.706 61.248L362.738 61.692C363.074 61.82 363.37 61.976 363.626 62.16C363.882 62.344 364.082 62.572 364.226 62.844C364.37 63.108 364.442 63.432 364.442 63.816C364.442 64.24 364.326 64.628 364.094 64.98C363.862 65.332 363.53 65.616 363.098 65.832C362.666 66.04 362.146 66.144 361.538 66.144ZM367.917 66.144C367.229 66.144 366.729 65.936 366.417 65.52C366.105 65.104 365.949 64.516 365.949 63.756V60.108H367.329V63.576C367.329 64.048 367.409 64.396 367.569 64.62C367.737 64.844 368.025 64.956 368.433 64.956C368.705 64.956 368.953 64.892 369.177 64.764C369.409 64.628 369.653 64.4 369.909 64.08V60.108H371.289V66H370.161L370.053 65.064H370.005C369.725 65.384 369.417 65.644 369.081 65.844C368.745 66.044 368.357 66.144 367.917 66.144ZM376.253 66.144C375.973 66.144 375.681 66.076 375.377 65.94C375.081 65.804 374.801 65.608 374.537 65.352H374.501L374.381 66H373.289V57.528H374.681V59.712L374.621 60.744H374.657C374.905 60.504 375.185 60.316 375.497 60.18C375.817 60.036 376.137 59.964 376.457 59.964C376.969 59.964 377.401 60.088 377.753 60.336C378.113 60.584 378.389 60.932 378.581 61.38C378.773 61.82 378.869 62.344 378.869 62.952C378.869 63.624 378.745 64.2 378.497 64.68C378.249 65.152 377.925 65.516 377.525 65.772C377.133 66.02 376.709 66.144 376.253 66.144ZM375.977 65.004C376.249 65.004 376.497 64.928 376.721 64.776C376.945 64.624 377.121 64.4 377.249 64.104C377.377 63.8 377.441 63.424 377.441 62.976C377.441 62.584 377.393 62.248 377.297 61.968C377.201 61.688 377.053 61.476 376.853 61.332C376.661 61.18 376.401 61.104 376.073 61.104C375.849 61.104 375.621 61.16 375.389 61.272C375.157 61.384 374.921 61.564 374.681 61.812V64.464C374.897 64.656 375.121 64.796 375.353 64.884C375.585 64.964 375.793 65.004 375.977 65.004ZM383.136 66.144C382.584 66.144 382.056 66.056 381.552 65.88C381.048 65.696 380.612 65.48 380.244 65.232L380.844 64.356C381.196 64.588 381.576 64.772 381.984 64.908C382.392 65.036 382.836 65.1 383.316 65.1C383.724 65.1 384.024 65.032 384.216 64.896C384.416 64.752 384.516 64.584 384.516 64.392C384.516 64.296 384.492 64.208 384.444 64.128C384.404 64.048 384.328 63.976 384.216 63.912C384.104 63.84 383.94 63.772 383.724 63.708C383.508 63.644 383.228 63.576 382.884 63.504C382.1 63.336 381.524 63.108 381.156 62.82C380.788 62.532 380.604 62.168 380.604 61.728C380.604 61.208 380.828 60.784 381.276 60.456C381.732 60.128 382.372 59.964 383.196 59.964C383.684 59.964 384.14 60.044 384.564 60.204C384.996 60.364 385.36 60.544 385.656 60.744L385.02 61.596C384.74 61.404 384.432 61.26 384.096 61.164C383.76 61.06 383.42 61.008 383.076 61.008C382.812 61.008 382.6 61.036 382.44 61.092C382.288 61.148 382.172 61.228 382.092 61.332C382.02 61.428 381.984 61.536 381.984 61.656C381.984 61.864 382.104 62.02 382.344 62.124C382.584 62.228 382.976 62.34 383.52 62.46C384.152 62.596 384.64 62.752 384.984 62.928C385.328 63.096 385.564 63.292 385.692 63.516C385.828 63.732 385.896 64 385.896 64.32C385.896 64.656 385.788 64.964 385.572 65.244C385.364 65.516 385.056 65.736 384.648 65.904C384.24 66.064 383.736 66.144 383.136 66.144ZM390.823 66.144C390.207 66.144 389.651 66.024 389.155 65.784C388.667 65.536 388.279 65.184 387.991 64.728C387.711 64.264 387.571 63.708 387.571 63.06C387.571 62.404 387.723 61.848 388.027 61.392C388.339 60.928 388.751 60.576 389.263 60.336C389.775 60.088 390.327 59.964 390.919 59.964C391.399 59.964 391.823 60.044 392.191 60.204C392.559 60.356 392.863 60.552 393.103 60.792L392.443 61.656C392.211 61.472 391.975 61.332 391.735 61.236C391.503 61.14 391.255 61.092 390.991 61.092C390.599 61.092 390.251 61.176 389.947 61.344C389.651 61.504 389.419 61.732 389.251 62.028C389.083 62.324 388.999 62.668 388.999 63.06C388.999 63.452 389.079 63.796 389.239 64.092C389.407 64.388 389.635 64.616 389.923 64.776C390.219 64.936 390.563 65.016 390.955 65.016C391.291 65.016 391.599 64.952 391.879 64.824C392.159 64.696 392.411 64.544 392.635 64.368L393.211 65.256C392.875 65.544 392.499 65.764 392.083 65.916C391.667 66.068 391.247 66.144 390.823 66.144ZM395.451 66V60.108H396.591L396.711 61.44H396.747C397.043 60.96 397.407 60.596 397.839 60.348C398.279 60.092 398.751 59.964 399.255 59.964C399.495 59.964 399.703 59.984 399.879 60.024C400.055 60.064 400.227 60.124 400.395 60.204L400.107 61.368C399.915 61.304 399.743 61.26 399.591 61.236C399.447 61.204 399.263 61.188 399.039 61.188C398.639 61.188 398.247 61.304 397.863 61.536C397.487 61.768 397.147 62.172 396.843 62.748V66H395.451ZM404.65 66V61.2H402.094V60.108H406.03V66H404.65ZM405.238 59.028C404.958 59.028 404.722 58.944 404.53 58.776C404.346 58.608 404.254 58.384 404.254 58.104C404.254 57.824 404.346 57.6 404.53 57.432C404.722 57.256 404.958 57.168 405.238 57.168C405.526 57.168 405.762 57.256 405.946 57.432C406.13 57.6 406.222 57.824 406.222 58.104C406.222 58.384 406.13 58.608 405.946 58.776C405.762 58.944 405.526 59.028 405.238 59.028ZM412.229 66.144C411.949 66.144 411.657 66.076 411.353 65.94C411.057 65.804 410.777 65.608 410.513 65.352H410.477L410.357 66H409.265V57.528H410.657V59.712L410.597 60.744H410.633C410.881 60.504 411.161 60.316 411.473 60.18C411.793 60.036 412.113 59.964 412.433 59.964C412.945 59.964 413.377 60.088 413.729 60.336C414.089 60.584 414.365 60.932 414.557 61.38C414.749 61.82 414.845 62.344 414.845 62.952C414.845 63.624 414.721 64.2 414.473 64.68C414.225 65.152 413.901 65.516 413.501 65.772C413.109 66.02 412.685 66.144 412.229 66.144ZM411.953 65.004C412.225 65.004 412.473 64.928 412.697 64.776C412.921 64.624 413.097 64.4 413.225 64.104C413.353 63.8 413.417 63.424 413.417 62.976C413.417 62.584 413.369 62.248 413.273 61.968C413.177 61.688 413.029 61.476 412.829 61.332C412.637 61.18 412.377 61.104 412.049 61.104C411.825 61.104 411.597 61.16 411.365 61.272C411.133 61.384 410.897 61.564 410.657 61.812V64.464C410.873 64.656 411.097 64.796 411.329 64.884C411.561 64.964 411.769 65.004 411.953 65.004ZM419.437 66.144C418.837 66.144 418.293 66.024 417.805 65.784C417.317 65.536 416.929 65.184 416.641 64.728C416.353 64.264 416.209 63.704 416.209 63.048C416.209 62.408 416.353 61.86 416.641 61.404C416.929 60.94 417.305 60.584 417.769 60.336C418.233 60.088 418.729 59.964 419.257 59.964C419.841 59.964 420.333 60.084 420.733 60.324C421.141 60.564 421.449 60.896 421.657 61.32C421.873 61.736 421.981 62.216 421.981 62.76C421.981 62.896 421.973 63.028 421.957 63.156C421.949 63.276 421.937 63.376 421.921 63.456H417.205V62.472H421.033L420.769 62.784C420.769 62.2 420.637 61.764 420.373 61.476C420.117 61.18 419.757 61.032 419.293 61.032C418.965 61.032 418.669 61.108 418.405 61.26C418.149 61.412 417.945 61.64 417.793 61.944C417.641 62.24 417.565 62.608 417.565 63.048C417.565 63.504 417.649 63.88 417.817 64.176C417.993 64.472 418.233 64.696 418.537 64.848C418.849 65 419.209 65.076 419.617 65.076C419.929 65.076 420.217 65.032 420.481 64.944C420.745 64.856 421.009 64.736 421.273 64.584L421.741 65.448C421.429 65.648 421.077 65.816 420.685 65.952C420.293 66.08 419.877 66.144 419.437 66.144ZM425.828 66.144C425.076 66.144 424.468 65.872 424.004 65.328C423.54 64.784 423.308 64.028 423.308 63.06C423.308 62.42 423.432 61.868 423.68 61.404C423.928 60.94 424.252 60.584 424.652 60.336C425.052 60.088 425.472 59.964 425.912 59.964C426.248 59.964 426.544 60.024 426.8 60.144C427.064 60.264 427.308 60.436 427.532 60.66H427.568L427.496 59.664V57.528H428.888V66H427.748L427.64 65.316H427.604C427.38 65.54 427.112 65.736 426.8 65.904C426.488 66.064 426.164 66.144 425.828 66.144ZM426.164 65.004C426.404 65.004 426.636 64.948 426.86 64.836C427.084 64.716 427.296 64.536 427.496 64.296V61.644C427.288 61.444 427.08 61.304 426.872 61.224C426.664 61.144 426.452 61.104 426.236 61.104C425.964 61.104 425.712 61.18 425.48 61.332C425.256 61.484 425.076 61.704 424.94 61.992C424.804 62.28 424.736 62.632 424.736 63.048C424.736 63.68 424.86 64.164 425.108 64.5C425.364 64.836 425.716 65.004 426.164 65.004Z" fill="#1F69FF"/>
</svg>
