<svg width="454" height="310" viewBox="0 0 454 310" fill="none" xmlns="http://www.w3.org/2000/svg">
<rect width="454" height="310" fill="white"/>
<path d="M52 42V279H302" stroke="#232A3D" stroke-width="2"/>
<path d="M152 119.982C152 116.678 149.314 114 146 114C142.686 114 140 116.678 140 119.982C140 123.285 142.686 125.963 146 125.963C149.314 125.963 152 123.285 152 119.982Z" fill="#1F69FF"/>
<path d="M164.184 176.165C163.277 172.987 159.958 171.144 156.771 172.048C153.584 172.952 151.735 176.261 152.642 179.439C153.549 182.616 156.868 184.459 160.055 183.555C163.242 182.651 165.091 179.342 164.184 176.165Z" fill="#1F69FF"/>
<path d="M232.184 188.128C231.277 184.951 227.958 183.108 224.771 184.012C221.584 184.916 219.735 188.225 220.642 191.402C221.549 194.58 224.868 196.423 228.055 195.519C231.242 194.615 233.091 191.306 232.184 188.128Z" fill="#1F69FF"/>
<path d="M221.184 100.753C220.277 97.5759 216.958 95.7329 213.771 96.6369C210.584 97.5409 208.735 100.85 209.642 104.027C210.549 107.205 213.868 109.048 217.055 108.144C220.242 107.24 222.091 103.931 221.184 100.753Z" fill="#1F69FF"/>
<path d="M264.184 218.753C263.277 215.576 259.958 213.733 256.771 214.637C253.584 215.541 251.735 218.85 252.642 222.027C253.549 225.205 256.868 227.048 260.055 226.144C263.242 225.24 265.091 221.931 264.184 218.753Z" fill="#1F69FF"/>
<path d="M89.416 202.33C87.9122 199.386 84.2993 198.215 81.3465 199.715C78.3937 201.214 77.2191 204.816 78.723 207.76C80.2269 210.703 83.8397 211.874 86.7925 210.375C89.7453 208.876 90.9199 205.274 89.416 202.33Z" fill="#1F69FF"/>
<path d="M278.184 111.753C277.277 108.576 273.958 106.733 270.771 107.637C267.584 108.541 265.735 111.85 266.642 115.027C267.549 118.205 270.868 120.048 274.055 119.144C277.242 118.24 279.091 114.931 278.184 111.753Z" fill="#1F69FF"/>
<path d="M87.1838 128.753C86.2771 125.576 82.9582 123.733 79.771 124.637C76.5838 125.541 74.7351 128.85 75.6419 132.027C76.5487 135.205 79.8675 137.048 83.0547 136.144C86.242 135.24 88.0906 131.931 87.1838 128.753Z" fill="#1F69FF"/>
<path d="M185.184 209.753C184.277 206.576 180.958 204.733 177.771 205.637C174.584 206.541 172.735 209.85 173.642 213.027C174.549 216.205 177.868 218.048 181.055 217.144C184.242 216.24 186.091 212.931 185.184 209.753Z" fill="#9B51E0"/>
<path d="M124 60.9817C124 57.6781 121.314 55 118 55C114.686 55 112 57.6781 112 60.9817C112 64.2853 114.686 66.9634 118 66.9634C121.314 66.9634 124 64.2853 124 60.9817Z" fill="#9B51E0"/>
<path d="M136 202.982C136 199.678 133.314 197 130 197C126.686 197 124 199.678 124 202.982C124 206.285 126.686 208.963 130 208.963C133.314 208.963 136 206.285 136 202.982Z" fill="#9B51E0"/>
<path d="M222 60.9817C222 57.6781 219.314 55 216 55C212.686 55 210 57.6781 210 60.9817C210 64.2853 212.686 66.9634 216 66.9634C219.314 66.9634 222 64.2853 222 60.9817Z" fill="#9B51E0"/>
<path d="M105 156.982C105 153.678 102.314 151 99 151C95.6863 151 93 153.678 93 156.982C93 160.285 95.6863 162.963 99 162.963C102.314 162.963 105 160.285 105 156.982Z" fill="#9B51E0"/>
<path d="M246 233.982C246 230.678 243.314 228 240 228C236.686 228 234 230.678 234 233.982C234 237.285 236.686 239.963 240 239.963C243.314 239.963 246 237.285 246 233.982Z" fill="#9B51E0"/>
<path d="M107 101.982C107 98.6781 104.314 96 101 96C97.6863 96 95 98.6781 95 101.982C95 105.285 97.6863 107.963 101 107.963C104.314 107.963 107 105.285 107 101.982Z" fill="#9B51E0"/>
<path d="M248 89.9817C248 86.6781 245.314 84 242 84C238.686 84 236 86.6781 236 89.9817C236 93.2853 238.686 95.9634 242 95.9634C245.314 95.9634 248 93.2853 248 89.9817Z" fill="#9B51E0"/>
<path d="M271 139.982C271 136.678 268.314 134 265 134C261.686 134 259 136.678 259 139.982C259 143.285 261.686 145.963 265 145.963C268.314 145.963 271 143.285 271 139.982Z" fill="#9B51E0"/>
<path d="M281 190.982C281 187.678 278.314 185 275 185C271.686 185 269 187.678 269 190.982C269 194.285 271.686 196.963 275 196.963C278.314 196.963 281 194.285 281 190.982Z" fill="#9B51E0"/>
<path d="M221 143.982C221 140.678 218.314 138 215 138C211.686 138 209 140.678 209 143.982C209 147.285 211.686 149.963 215 149.963C218.314 149.963 221 147.285 221 143.982Z" fill="#9B51E0"/>
<path d="M178 76.9817C178 73.6781 175.314 71 172 71C168.686 71 166 73.6781 166 76.9817C166 80.2853 168.686 82.9634 172 82.9634C175.314 82.9634 178 80.2853 178 76.9817Z" fill="#9B51E0"/>
<path d="M84 239.982C84 236.678 81.3137 234 78 234C74.6863 234 72 236.678 72 239.982C72 243.285 74.6863 245.963 78 245.963C81.3137 245.963 84 243.285 84 239.982Z" fill="#9B51E0"/>
<path d="M153 255.982C153 252.678 150.314 250 147 250C143.686 250 141 252.678 141 255.982C141 259.285 143.686 261.963 147 261.963C150.314 261.963 153 259.285 153 255.982Z" fill="#9B51E0"/>
<path d="M199 261.982C199 258.678 196.314 256 193 256C189.686 256 187 258.678 187 261.982C187 265.285 189.686 267.963 193 267.963C196.314 267.963 199 265.285 199 261.982Z" fill="#9B51E0"/>
<rect x="309.5" y="55.5" width="19" height="19" fill="#1F69FF" stroke="#232A3D"/>
<rect x="309.5" y="28.5" width="19" height="19" fill="#9B51E0" stroke="#232A3D"/>
<path d="M340.647 42.144C340.095 42.144 339.567 42.044 339.063 41.844C338.559 41.644 338.111 41.36 337.719 40.992L338.535 40.044C338.831 40.308 339.167 40.524 339.543 40.692C339.919 40.852 340.315 40.932 340.731 40.932C341.187 40.932 341.535 40.844 341.775 40.668C342.015 40.484 342.135 40.256 342.135 39.984C342.135 39.752 342.079 39.568 341.967 39.432C341.855 39.288 341.699 39.168 341.499 39.072C341.307 38.976 341.079 38.876 340.815 38.772L339.747 38.304C339.475 38.192 339.207 38.048 338.943 37.872C338.687 37.696 338.475 37.472 338.307 37.2C338.147 36.928 338.067 36.6 338.067 36.216C338.067 35.8 338.183 35.428 338.415 35.1C338.647 34.764 338.967 34.5 339.375 34.308C339.791 34.108 340.263 34.008 340.791 34.008C341.271 34.008 341.727 34.1 342.159 34.284C342.599 34.46 342.983 34.7 343.311 35.004L342.591 35.892C342.327 35.676 342.047 35.512 341.751 35.4C341.463 35.28 341.119 35.22 340.719 35.22C340.351 35.22 340.051 35.3 339.819 35.46C339.587 35.62 339.471 35.848 339.471 36.144C339.471 36.344 339.535 36.508 339.663 36.636C339.791 36.764 339.955 36.876 340.155 36.972C340.363 37.068 340.583 37.16 340.815 37.248L341.847 37.692C342.183 37.82 342.479 37.976 342.735 38.16C342.991 38.344 343.191 38.572 343.335 38.844C343.479 39.108 343.551 39.432 343.551 39.816C343.551 40.24 343.435 40.628 343.203 40.98C342.971 41.332 342.639 41.616 342.207 41.832C341.775 42.04 341.255 42.144 340.647 42.144ZM347.027 42.144C346.339 42.144 345.839 41.936 345.527 41.52C345.215 41.104 345.059 40.516 345.059 39.756V36.108H346.439V39.576C346.439 40.048 346.519 40.396 346.679 40.62C346.847 40.844 347.135 40.956 347.543 40.956C347.815 40.956 348.063 40.892 348.287 40.764C348.519 40.628 348.763 40.4 349.019 40.08V36.108H350.399V42H349.271L349.163 41.064H349.115C348.835 41.384 348.527 41.644 348.191 41.844C347.855 42.044 347.467 42.144 347.027 42.144ZM355.362 42.144C355.082 42.144 354.79 42.076 354.486 41.94C354.19 41.804 353.91 41.608 353.646 41.352H353.61L353.49 42H352.398V33.528H353.79V35.712L353.73 36.744H353.766C354.014 36.504 354.294 36.316 354.606 36.18C354.926 36.036 355.246 35.964 355.566 35.964C356.078 35.964 356.51 36.088 356.862 36.336C357.222 36.584 357.498 36.932 357.69 37.38C357.882 37.82 357.978 38.344 357.978 38.952C357.978 39.624 357.854 40.2 357.606 40.68C357.358 41.152 357.034 41.516 356.634 41.772C356.242 42.02 355.818 42.144 355.362 42.144ZM355.086 41.004C355.358 41.004 355.606 40.928 355.83 40.776C356.054 40.624 356.23 40.4 356.358 40.104C356.486 39.8 356.55 39.424 356.55 38.976C356.55 38.584 356.502 38.248 356.406 37.968C356.31 37.688 356.162 37.476 355.962 37.332C355.77 37.18 355.51 37.104 355.182 37.104C354.958 37.104 354.73 37.16 354.498 37.272C354.266 37.384 354.03 37.564 353.79 37.812V40.464C354.006 40.656 354.23 40.796 354.462 40.884C354.694 40.964 354.902 41.004 355.086 41.004ZM362.245 42.144C361.693 42.144 361.165 42.056 360.661 41.88C360.157 41.696 359.721 41.48 359.353 41.232L359.953 40.356C360.305 40.588 360.685 40.772 361.093 40.908C361.501 41.036 361.945 41.1 362.425 41.1C362.833 41.1 363.133 41.032 363.325 40.896C363.525 40.752 363.625 40.584 363.625 40.392C363.625 40.296 363.601 40.208 363.553 40.128C363.513 40.048 363.437 39.976 363.325 39.912C363.213 39.84 363.049 39.772 362.833 39.708C362.617 39.644 362.337 39.576 361.993 39.504C361.209 39.336 360.633 39.108 360.265 38.82C359.897 38.532 359.713 38.168 359.713 37.728C359.713 37.208 359.937 36.784 360.385 36.456C360.841 36.128 361.481 35.964 362.305 35.964C362.793 35.964 363.249 36.044 363.673 36.204C364.105 36.364 364.469 36.544 364.765 36.744L364.129 37.596C363.849 37.404 363.541 37.26 363.205 37.164C362.869 37.06 362.529 37.008 362.185 37.008C361.921 37.008 361.709 37.036 361.549 37.092C361.397 37.148 361.281 37.228 361.201 37.332C361.129 37.428 361.093 37.536 361.093 37.656C361.093 37.864 361.213 38.02 361.453 38.124C361.693 38.228 362.085 38.34 362.629 38.46C363.261 38.596 363.749 38.752 364.093 38.928C364.437 39.096 364.673 39.292 364.801 39.516C364.937 39.732 365.005 40 365.005 40.32C365.005 40.656 364.897 40.964 364.681 41.244C364.473 41.516 364.165 41.736 363.757 41.904C363.349 42.064 362.845 42.144 362.245 42.144ZM369.933 42.144C369.317 42.144 368.761 42.024 368.265 41.784C367.777 41.536 367.389 41.184 367.101 40.728C366.821 40.264 366.681 39.708 366.681 39.06C366.681 38.404 366.833 37.848 367.137 37.392C367.449 36.928 367.861 36.576 368.373 36.336C368.885 36.088 369.437 35.964 370.029 35.964C370.509 35.964 370.933 36.044 371.301 36.204C371.669 36.356 371.973 36.552 372.213 36.792L371.553 37.656C371.321 37.472 371.085 37.332 370.845 37.236C370.613 37.14 370.365 37.092 370.101 37.092C369.709 37.092 369.361 37.176 369.057 37.344C368.761 37.504 368.529 37.732 368.361 38.028C368.193 38.324 368.109 38.668 368.109 39.06C368.109 39.452 368.189 39.796 368.349 40.092C368.517 40.388 368.745 40.616 369.033 40.776C369.329 40.936 369.673 41.016 370.065 41.016C370.401 41.016 370.709 40.952 370.989 40.824C371.269 40.696 371.521 40.544 371.745 40.368L372.321 41.256C371.985 41.544 371.609 41.764 371.193 41.916C370.777 42.068 370.357 42.144 369.933 42.144ZM374.56 42V36.108H375.7L375.82 37.44H375.856C376.152 36.96 376.516 36.596 376.948 36.348C377.388 36.092 377.86 35.964 378.364 35.964C378.604 35.964 378.812 35.984 378.988 36.024C379.164 36.064 379.336 36.124 379.504 36.204L379.216 37.368C379.024 37.304 378.852 37.26 378.7 37.236C378.556 37.204 378.372 37.188 378.148 37.188C377.748 37.188 377.356 37.304 376.972 37.536C376.596 37.768 376.256 38.172 375.952 38.748V42H374.56ZM383.759 42V37.2H381.203V36.108H385.139V42H383.759ZM384.347 35.028C384.067 35.028 383.831 34.944 383.639 34.776C383.455 34.608 383.363 34.384 383.363 34.104C383.363 33.824 383.455 33.6 383.639 33.432C383.831 33.256 384.067 33.168 384.347 33.168C384.635 33.168 384.871 33.256 385.055 33.432C385.239 33.6 385.331 33.824 385.331 34.104C385.331 34.384 385.239 34.608 385.055 34.776C384.871 34.944 384.635 35.028 384.347 35.028ZM391.339 42.144C391.059 42.144 390.767 42.076 390.463 41.94C390.167 41.804 389.887 41.608 389.623 41.352H389.587L389.467 42H388.375V33.528H389.767V35.712L389.707 36.744H389.743C389.991 36.504 390.271 36.316 390.583 36.18C390.903 36.036 391.223 35.964 391.543 35.964C392.055 35.964 392.487 36.088 392.839 36.336C393.199 36.584 393.475 36.932 393.667 37.38C393.859 37.82 393.955 38.344 393.955 38.952C393.955 39.624 393.831 40.2 393.583 40.68C393.335 41.152 393.011 41.516 392.611 41.772C392.219 42.02 391.795 42.144 391.339 42.144ZM391.063 41.004C391.335 41.004 391.583 40.928 391.807 40.776C392.031 40.624 392.207 40.4 392.335 40.104C392.463 39.8 392.527 39.424 392.527 38.976C392.527 38.584 392.479 38.248 392.383 37.968C392.287 37.688 392.139 37.476 391.939 37.332C391.747 37.18 391.487 37.104 391.159 37.104C390.935 37.104 390.707 37.16 390.475 37.272C390.243 37.384 390.007 37.564 389.767 37.812V40.464C389.983 40.656 390.207 40.796 390.439 40.884C390.671 40.964 390.879 41.004 391.063 41.004ZM398.546 42.144C397.946 42.144 397.402 42.024 396.914 41.784C396.426 41.536 396.038 41.184 395.75 40.728C395.462 40.264 395.318 39.704 395.318 39.048C395.318 38.408 395.462 37.86 395.75 37.404C396.038 36.94 396.414 36.584 396.878 36.336C397.342 36.088 397.838 35.964 398.366 35.964C398.95 35.964 399.442 36.084 399.842 36.324C400.25 36.564 400.558 36.896 400.766 37.32C400.982 37.736 401.09 38.216 401.09 38.76C401.09 38.896 401.082 39.028 401.066 39.156C401.058 39.276 401.046 39.376 401.03 39.456H396.314V38.472H400.142L399.878 38.784C399.878 38.2 399.746 37.764 399.482 37.476C399.226 37.18 398.866 37.032 398.402 37.032C398.074 37.032 397.778 37.108 397.514 37.26C397.258 37.412 397.054 37.64 396.902 37.944C396.75 38.24 396.674 38.608 396.674 39.048C396.674 39.504 396.758 39.88 396.926 40.176C397.102 40.472 397.342 40.696 397.646 40.848C397.958 41 398.318 41.076 398.726 41.076C399.038 41.076 399.326 41.032 399.59 40.944C399.854 40.856 400.118 40.736 400.382 40.584L400.85 41.448C400.538 41.648 400.186 41.816 399.794 41.952C399.402 42.08 398.986 42.144 398.546 42.144ZM404.937 42.144C404.185 42.144 403.577 41.872 403.113 41.328C402.649 40.784 402.417 40.028 402.417 39.06C402.417 38.42 402.541 37.868 402.789 37.404C403.037 36.94 403.361 36.584 403.761 36.336C404.161 36.088 404.581 35.964 405.021 35.964C405.357 35.964 405.653 36.024 405.909 36.144C406.173 36.264 406.417 36.436 406.641 36.66H406.677L406.605 35.664V33.528H407.997V42H406.857L406.749 41.316H406.713C406.489 41.54 406.221 41.736 405.909 41.904C405.597 42.064 405.273 42.144 404.937 42.144ZM405.273 41.004C405.513 41.004 405.745 40.948 405.969 40.836C406.193 40.716 406.405 40.536 406.605 40.296V37.644C406.397 37.444 406.189 37.304 405.981 37.224C405.773 37.144 405.561 37.104 405.345 37.104C405.073 37.104 404.821 37.18 404.589 37.332C404.365 37.484 404.185 37.704 404.049 37.992C403.913 38.28 403.845 38.632 403.845 39.048C403.845 39.68 403.969 40.164 404.217 40.5C404.473 40.836 404.825 41.004 405.273 41.004Z" fill="#9B51E0"/>
<path d="M314.429 283L317.821 272.536H319.997L323.389 283H321.421L319.837 277.432C319.688 276.877 319.528 276.307 319.357 275.72C319.197 275.133 319.048 274.552 318.909 273.976H318.845C318.696 274.552 318.541 275.133 318.381 275.72C318.232 276.307 318.077 276.877 317.917 277.432L316.317 283H314.429ZM316.429 280.168V278.712H321.341V280.168H316.429ZM328.279 286.472C327.554 286.472 326.924 286.392 326.391 286.232C325.858 286.083 325.442 285.853 325.143 285.544C324.844 285.235 324.695 284.845 324.695 284.376C324.695 284.067 324.802 283.768 325.015 283.48C325.228 283.192 325.538 282.941 325.943 282.728V282.664C325.74 282.536 325.554 282.371 325.383 282.168C325.223 281.955 325.143 281.683 325.143 281.352C325.143 281.096 325.228 280.835 325.399 280.568C325.57 280.301 325.799 280.072 326.087 279.88V279.816C325.81 279.613 325.57 279.341 325.367 279C325.175 278.648 325.079 278.243 325.079 277.784C325.079 277.176 325.228 276.664 325.527 276.248C325.826 275.821 326.22 275.501 326.711 275.288C327.202 275.064 327.735 274.952 328.311 274.952C328.78 274.952 329.191 275.016 329.543 275.144H332.759V276.552H330.951C331.09 276.701 331.207 276.893 331.303 277.128C331.41 277.352 331.463 277.592 331.463 277.848C331.463 278.424 331.319 278.915 331.031 279.32C330.754 279.715 330.38 280.013 329.911 280.216C329.442 280.419 328.908 280.52 328.311 280.52C328.13 280.52 327.932 280.504 327.719 280.472C327.516 280.429 327.314 280.371 327.111 280.296C326.951 280.392 326.828 280.499 326.743 280.616C326.668 280.733 326.631 280.872 326.631 281.032C326.631 281.277 326.754 281.464 326.999 281.592C327.255 281.709 327.628 281.768 328.119 281.768H329.719C330.743 281.768 331.511 281.917 332.023 282.216C332.546 282.504 332.807 282.995 332.807 283.688C332.807 284.2 332.62 284.669 332.247 285.096C331.884 285.523 331.362 285.859 330.679 286.104C330.007 286.349 329.207 286.472 328.279 286.472ZM328.311 279.352C328.588 279.352 328.839 279.293 329.063 279.176C329.287 279.048 329.463 278.867 329.591 278.632C329.73 278.397 329.799 278.115 329.799 277.784C329.799 277.464 329.73 277.192 329.591 276.968C329.463 276.733 329.287 276.552 329.063 276.424C328.839 276.296 328.588 276.232 328.311 276.232C328.044 276.232 327.799 276.296 327.575 276.424C327.351 276.552 327.17 276.733 327.031 276.968C326.892 277.192 326.823 277.464 326.823 277.784C326.823 278.115 326.892 278.397 327.031 278.632C327.17 278.867 327.351 279.048 327.575 279.176C327.799 279.293 328.044 279.352 328.311 279.352ZM328.503 285.256C329.015 285.256 329.458 285.197 329.831 285.08C330.215 284.963 330.508 284.808 330.711 284.616C330.924 284.424 331.031 284.216 331.031 283.992C331.031 283.683 330.898 283.475 330.631 283.368C330.375 283.272 329.98 283.224 329.447 283.224H328.199C327.943 283.224 327.719 283.213 327.527 283.192C327.335 283.171 327.159 283.144 326.999 283.112C326.722 283.272 326.524 283.437 326.407 283.608C326.29 283.779 326.231 283.955 326.231 284.136C326.231 284.488 326.428 284.76 326.823 284.952C327.218 285.155 327.778 285.256 328.503 285.256ZM338.577 283.192C337.777 283.192 337.052 283.032 336.401 282.712C335.75 282.381 335.233 281.912 334.849 281.304C334.465 280.685 334.273 279.939 334.273 279.064C334.273 278.211 334.465 277.48 334.849 276.872C335.233 276.253 335.734 275.779 336.353 275.448C336.972 275.117 337.633 274.952 338.337 274.952C339.116 274.952 339.772 275.112 340.305 275.432C340.849 275.752 341.26 276.195 341.537 276.76C341.825 277.315 341.969 277.955 341.969 278.68C341.969 278.861 341.958 279.037 341.937 279.208C341.926 279.368 341.91 279.501 341.889 279.608H335.601V278.296H340.705L340.353 278.712C340.353 277.933 340.177 277.352 339.825 276.968C339.484 276.573 339.004 276.376 338.385 276.376C337.948 276.376 337.553 276.477 337.201 276.68C336.86 276.883 336.588 277.187 336.385 277.592C336.182 277.987 336.081 278.477 336.081 279.064C336.081 279.672 336.193 280.173 336.417 280.568C336.652 280.963 336.972 281.261 337.377 281.464C337.793 281.667 338.273 281.768 338.817 281.768C339.233 281.768 339.617 281.709 339.969 281.592C340.321 281.475 340.673 281.315 341.025 281.112L341.649 282.264C341.233 282.531 340.764 282.755 340.241 282.936C339.718 283.107 339.164 283.192 338.577 283.192Z" fill="#232A3D"/>
<path d="M19.789 30.192C19.1383 30.192 18.525 30.0747 17.949 29.84C17.3837 29.6053 16.8823 29.2587 16.445 28.8C16.0183 28.3413 15.6823 27.776 15.437 27.104C15.2023 26.432 15.085 25.664 15.085 24.8C15.085 23.6587 15.293 22.6827 15.709 21.872C16.1357 21.0507 16.7117 20.4267 17.437 20C18.173 19.5627 18.9997 19.344 19.917 19.344C20.5677 19.344 21.149 19.4773 21.661 19.744C22.173 20.0107 22.589 20.3147 22.909 20.656L21.885 21.808C21.629 21.5413 21.341 21.3333 21.021 21.184C20.701 21.0347 20.333 20.96 19.917 20.96C19.341 20.96 18.829 21.1147 18.381 21.424C17.9437 21.7227 17.6023 22.1547 17.357 22.72C17.1117 23.2853 16.989 23.9627 16.989 24.752C16.989 25.5413 17.1117 26.224 17.357 26.8C17.6023 27.376 17.949 27.8187 18.397 28.128C18.845 28.4267 19.3677 28.576 19.965 28.576C20.4023 28.576 20.7917 28.4853 21.133 28.304C21.4743 28.112 21.7943 27.856 22.093 27.536L23.117 28.672C22.701 29.1627 22.2157 29.5413 21.661 29.808C21.1063 30.064 20.4823 30.192 19.789 30.192ZM27.4788 30.192C26.9668 30.192 26.5134 30.096 26.1188 29.904C25.7241 29.7013 25.4148 29.4293 25.1908 29.088C24.9668 28.7467 24.8548 28.3467 24.8548 27.888C24.8548 27.0133 25.2708 26.3467 26.1028 25.888C26.9454 25.4187 28.3374 25.1147 30.2788 24.976C30.2574 24.688 30.1774 24.4267 30.0388 24.192C29.9108 23.9573 29.7134 23.776 29.4468 23.648C29.1801 23.5093 28.8334 23.44 28.4068 23.44C28.1081 23.44 27.8148 23.4773 27.5268 23.552C27.2388 23.6267 26.9508 23.728 26.6628 23.856C26.3854 23.984 26.1081 24.1227 25.8307 24.272L25.1588 23.04C25.4788 22.848 25.8308 22.672 26.2148 22.512C26.5988 22.3413 27.0041 22.208 27.4308 22.112C27.8574 22.0053 28.2948 21.952 28.7428 21.952C29.4788 21.952 30.0921 22.0853 30.5828 22.352C31.0841 22.608 31.4628 22.992 31.7188 23.504C31.9854 24.0053 32.1188 24.6187 32.1188 25.344V30H30.6148L30.4708 29.024H30.4228C30.0068 29.344 29.5428 29.6213 29.0308 29.856C28.5294 30.08 28.0121 30.192 27.4788 30.192ZM28.0388 28.752C28.4334 28.752 28.8121 28.6667 29.1748 28.496C29.5481 28.3147 29.9161 28.08 30.2788 27.792V26.128C29.3401 26.192 28.6041 26.2987 28.0708 26.448C27.5374 26.5867 27.1641 26.768 26.9508 26.992C26.7374 27.216 26.6308 27.4667 26.6308 27.744C26.6308 27.9787 26.6948 28.1707 26.8228 28.32C26.9508 28.4693 27.1161 28.5813 27.3188 28.656C27.5321 28.72 27.7721 28.752 28.0388 28.752ZM34.0485 30V22.144H35.4725L35.6165 23.136H35.6645C35.8352 22.7947 36.0538 22.512 36.3205 22.288C36.5872 22.064 36.9498 21.952 37.4085 21.952C37.7712 21.952 38.0752 22.064 38.3205 22.288C38.5658 22.5013 38.7365 22.8267 38.8325 23.264C39.0138 22.88 39.2432 22.5653 39.5205 22.32C39.7978 22.0747 40.1658 21.952 40.6245 21.952C41.1792 21.952 41.6058 22.1707 41.9045 22.608C42.2138 23.0347 42.3685 23.6427 42.3685 24.432V30H40.5925V24.56C40.5925 23.8667 40.3845 23.52 39.9685 23.52C39.7552 23.52 39.5738 23.6 39.4245 23.76C39.2858 23.92 39.1365 24.1707 38.9765 24.512V30H37.4405V24.56C37.4405 24.2187 37.3925 23.9627 37.2965 23.792C37.2005 23.6107 37.0405 23.52 36.8165 23.52C36.6138 23.52 36.4378 23.6 36.2885 23.76C36.1392 23.92 35.9898 24.1707 35.8405 24.512V30H34.0485ZM44.2183 33.104V22.144H45.7383L45.8823 23.04H45.9303C46.2716 22.72 46.6609 22.4587 47.0983 22.256C47.5463 22.0533 47.9943 21.952 48.4423 21.952C49.1356 21.952 49.7169 22.1173 50.1863 22.448C50.6556 22.7787 51.0183 23.2427 51.2743 23.84C51.5303 24.4373 51.6583 25.1413 51.6583 25.952C51.6583 26.848 51.4929 27.6107 51.1623 28.24C50.8316 28.8693 50.3996 29.3547 49.8663 29.696C49.3436 30.0267 48.7783 30.192 48.1703 30.192C47.8183 30.192 47.4503 30.112 47.0663 29.952C46.6929 29.792 46.3463 29.5627 46.0263 29.264H45.9783L46.0743 30.64V33.104H44.2183ZM47.7863 28.672C48.1596 28.672 48.4956 28.5707 48.7943 28.368C49.0929 28.1653 49.3276 27.8667 49.4983 27.472C49.6689 27.0667 49.7543 26.5653 49.7543 25.968C49.7543 25.4453 49.6903 24.9973 49.5623 24.624C49.4343 24.2507 49.2369 23.968 48.9703 23.776C48.7143 23.5733 48.3676 23.472 47.9303 23.472C47.6316 23.472 47.3276 23.5467 47.0182 23.696C46.7089 23.8453 46.3943 24.0853 46.0743 24.416V27.952C46.3623 28.208 46.6609 28.3947 46.9703 28.512C47.2796 28.6187 47.5516 28.672 47.7863 28.672ZM56.26 30.192C55.748 30.192 55.2947 30.096 54.9 29.904C54.5053 29.7013 54.196 29.4293 53.972 29.088C53.748 28.7467 53.636 28.3467 53.636 27.888C53.636 27.0133 54.052 26.3467 54.884 25.888C55.7267 25.4187 57.1187 25.1147 59.06 24.976C59.0387 24.688 58.9587 24.4267 58.82 24.192C58.692 23.9573 58.4947 23.776 58.228 23.648C57.9613 23.5093 57.6147 23.44 57.188 23.44C56.8893 23.44 56.596 23.4773 56.308 23.552C56.02 23.6267 55.732 23.728 55.444 23.856C55.1667 23.984 54.8893 24.1227 54.612 24.272L53.94 23.04C54.26 22.848 54.612 22.672 54.996 22.512C55.38 22.3413 55.7853 22.208 56.212 22.112C56.6387 22.0053 57.076 21.952 57.524 21.952C58.26 21.952 58.8733 22.0853 59.364 22.352C59.8653 22.608 60.244 22.992 60.5 23.504C60.7667 24.0053 60.9 24.6187 60.9 25.344V30H59.396L59.252 29.024H59.204C58.788 29.344 58.324 29.6213 57.812 29.856C57.3107 30.08 56.7933 30.192 56.26 30.192ZM56.82 28.752C57.2147 28.752 57.5933 28.6667 57.956 28.496C58.3293 28.3147 58.6973 28.08 59.06 27.792V26.128C58.1213 26.192 57.3853 26.2987 56.852 26.448C56.3187 26.5867 55.9453 26.768 55.732 26.992C55.5187 27.216 55.412 27.4667 55.412 27.744C55.412 27.9787 55.476 28.1707 55.604 28.32C55.732 28.4693 55.8973 28.5813 56.1 28.656C56.3133 28.72 56.5533 28.752 56.82 28.752ZM66.8458 30V23.6H63.4378V22.144H68.6858V30H66.8458ZM67.6298 20.704C67.2564 20.704 66.9418 20.592 66.6858 20.368C66.4404 20.144 66.3177 19.8453 66.3177 19.472C66.3177 19.0987 66.4404 18.8 66.6858 18.576C66.9418 18.3413 67.2564 18.224 67.6298 18.224C68.0138 18.224 68.3284 18.3413 68.5738 18.576C68.8191 18.8 68.9418 19.0987 68.9418 19.472C68.9418 19.8453 68.8191 20.144 68.5738 20.368C68.3284 20.592 68.0138 20.704 67.6298 20.704ZM76.2635 33.472C75.5382 33.472 74.9088 33.392 74.3755 33.232C73.8422 33.0827 73.4262 32.8533 73.1275 32.544C72.8288 32.2347 72.6795 31.8453 72.6795 31.376C72.6795 31.0667 72.7862 30.768 72.9995 30.48C73.2128 30.192 73.5222 29.9413 73.9275 29.728V29.664C73.7248 29.536 73.5382 29.3707 73.3675 29.168C73.2075 28.9547 73.1275 28.6827 73.1275 28.352C73.1275 28.096 73.2128 27.8347 73.3835 27.568C73.5542 27.3013 73.7835 27.072 74.0715 26.88V26.816C73.7942 26.6133 73.5542 26.3413 73.3515 26C73.1595 25.648 73.0635 25.2427 73.0635 24.784C73.0635 24.176 73.2128 23.664 73.5115 23.248C73.8102 22.8213 74.2048 22.5013 74.6955 22.288C75.1862 22.064 75.7195 21.952 76.2955 21.952C76.7648 21.952 77.1755 22.016 77.5275 22.144H80.7435V23.552H78.9355C79.0742 23.7013 79.1915 23.8933 79.2875 24.128C79.3942 24.352 79.4475 24.592 79.4475 24.848C79.4475 25.424 79.3035 25.9147 79.0155 26.32C78.7382 26.7147 78.3648 27.0133 77.8955 27.216C77.4262 27.4187 76.8928 27.52 76.2955 27.52C76.1142 27.52 75.9168 27.504 75.7035 27.472C75.5008 27.4293 75.2982 27.3707 75.0955 27.296C74.9355 27.392 74.8128 27.4987 74.7275 27.616C74.6528 27.7333 74.6155 27.872 74.6155 28.032C74.6155 28.2773 74.7382 28.464 74.9835 28.592C75.2395 28.7093 75.6128 28.768 76.1035 28.768H77.7035C78.7275 28.768 79.4955 28.9173 80.0075 29.216C80.5302 29.504 80.7915 29.9947 80.7915 30.688C80.7915 31.2 80.6048 31.6693 80.2315 32.096C79.8688 32.5227 79.3462 32.8587 78.6635 33.104C77.9915 33.3493 77.1915 33.472 76.2635 33.472ZM76.2955 26.352C76.5728 26.352 76.8235 26.2933 77.0475 26.176C77.2715 26.048 77.4475 25.8667 77.5755 25.632C77.7142 25.3973 77.7835 25.1147 77.7835 24.784C77.7835 24.464 77.7142 24.192 77.5755 23.968C77.4475 23.7333 77.2715 23.552 77.0475 23.424C76.8235 23.296 76.5728 23.232 76.2955 23.232C76.0288 23.232 75.7835 23.296 75.5595 23.424C75.3355 23.552 75.1542 23.7333 75.0155 23.968C74.8768 24.192 74.8075 24.464 74.8075 24.784C74.8075 25.1147 74.8768 25.3973 75.0155 25.632C75.1542 25.8667 75.3355 26.048 75.5595 26.176C75.7835 26.2933 76.0288 26.352 76.2955 26.352ZM76.4875 32.256C76.9995 32.256 77.4422 32.1973 77.8155 32.08C78.1995 31.9627 78.4928 31.808 78.6955 31.616C78.9088 31.424 79.0155 31.216 79.0155 30.992C79.0155 30.6827 78.8822 30.4747 78.6155 30.368C78.3595 30.272 77.9648 30.224 77.4315 30.224H76.1835C75.9275 30.224 75.7035 30.2133 75.5115 30.192C75.3195 30.1707 75.1435 30.144 74.9835 30.112C74.7062 30.272 74.5088 30.4373 74.3915 30.608C74.2742 30.7787 74.2155 30.9547 74.2155 31.136C74.2155 31.488 74.4128 31.76 74.8075 31.952C75.2022 32.1547 75.7622 32.256 76.4875 32.256ZM82.5933 30V22.144H84.1133L84.2573 23.328H84.3213C84.6946 22.944 85.1053 22.6187 85.5533 22.352C86.0119 22.0853 86.5453 21.952 87.1533 21.952C88.0599 21.952 88.7266 22.2293 89.1533 22.784C89.5799 23.3387 89.7933 24.1227 89.7933 25.136V30H87.9373V25.376C87.9373 24.7467 87.8253 24.2827 87.6013 23.984C87.3773 23.6853 86.9986 23.536 86.4653 23.536C86.0813 23.536 85.7399 23.6267 85.4413 23.808C85.1426 23.9893 84.8119 24.2667 84.4493 24.64V30H82.5933Z" fill="#232A3D"/>
<path d="M338.021 70V62.152H339.485L341.561 66.556L342.269 68.236H342.305C342.281 67.836 342.241 67.4 342.185 66.928C342.137 66.456 342.113 66 342.113 65.56V62.152H343.445V70H341.981L339.905 65.584L339.197 63.916H339.161C339.185 64.332 339.221 64.772 339.269 65.236C339.325 65.692 339.353 66.136 339.353 66.568V70H338.021ZM347.928 70.144C347.408 70.144 346.924 70.024 346.476 69.784C346.028 69.536 345.664 69.184 345.384 68.728C345.104 68.264 344.964 67.708 344.964 67.06C344.964 66.404 345.104 65.848 345.384 65.392C345.664 64.928 346.028 64.576 346.476 64.336C346.924 64.088 347.408 63.964 347.928 63.964C348.448 63.964 348.932 64.088 349.38 64.336C349.828 64.576 350.192 64.928 350.472 65.392C350.752 65.848 350.892 66.404 350.892 67.06C350.892 67.708 350.752 68.264 350.472 68.728C350.192 69.184 349.828 69.536 349.38 69.784C348.932 70.024 348.448 70.144 347.928 70.144ZM347.928 69.016C348.248 69.016 348.524 68.936 348.756 68.776C348.988 68.616 349.164 68.388 349.284 68.092C349.404 67.796 349.464 67.452 349.464 67.06C349.464 66.668 349.404 66.324 349.284 66.028C349.164 65.732 348.988 65.504 348.756 65.344C348.524 65.176 348.248 65.092 347.928 65.092C347.608 65.092 347.332 65.176 347.1 65.344C346.876 65.504 346.7 65.732 346.572 66.028C346.452 66.324 346.392 66.668 346.392 67.06C346.392 67.452 346.452 67.796 346.572 68.092C346.7 68.388 346.876 68.616 347.1 68.776C347.332 68.936 347.608 69.016 347.928 69.016ZM356.215 70.144C355.615 70.144 355.139 70.04 354.787 69.832C354.435 69.616 354.183 69.32 354.031 68.944C353.879 68.568 353.803 68.132 353.803 67.636V65.2H352.231V64.168L353.863 64.108L354.043 62.26H355.183V64.108H357.871V65.2H355.183V67.624C355.183 67.944 355.227 68.212 355.315 68.428C355.403 68.636 355.547 68.792 355.747 68.896C355.947 68.992 356.211 69.04 356.539 69.04C356.795 69.04 357.027 69.02 357.235 68.98C357.443 68.94 357.643 68.884 357.835 68.812L358.099 69.808C357.835 69.896 357.551 69.972 357.247 70.036C356.943 70.108 356.599 70.144 356.215 70.144ZM369.538 70.144C368.986 70.144 368.458 70.044 367.954 69.844C367.45 69.644 367.002 69.36 366.61 68.992L367.426 68.044C367.722 68.308 368.058 68.524 368.434 68.692C368.81 68.852 369.206 68.932 369.622 68.932C370.078 68.932 370.426 68.844 370.666 68.668C370.906 68.484 371.026 68.256 371.026 67.984C371.026 67.752 370.97 67.568 370.858 67.432C370.746 67.288 370.59 67.168 370.39 67.072C370.198 66.976 369.97 66.876 369.706 66.772L368.638 66.304C368.366 66.192 368.098 66.048 367.834 65.872C367.578 65.696 367.366 65.472 367.198 65.2C367.038 64.928 366.958 64.6 366.958 64.216C366.958 63.8 367.074 63.428 367.306 63.1C367.538 62.764 367.858 62.5 368.266 62.308C368.682 62.108 369.154 62.008 369.682 62.008C370.162 62.008 370.618 62.1 371.05 62.284C371.49 62.46 371.874 62.7 372.202 63.004L371.482 63.892C371.218 63.676 370.938 63.512 370.642 63.4C370.354 63.28 370.01 63.22 369.61 63.22C369.242 63.22 368.942 63.3 368.71 63.46C368.478 63.62 368.362 63.848 368.362 64.144C368.362 64.344 368.426 64.508 368.554 64.636C368.682 64.764 368.846 64.876 369.046 64.972C369.254 65.068 369.474 65.16 369.706 65.248L370.738 65.692C371.074 65.82 371.37 65.976 371.626 66.16C371.882 66.344 372.082 66.572 372.226 66.844C372.37 67.108 372.442 67.432 372.442 67.816C372.442 68.24 372.326 68.628 372.094 68.98C371.862 69.332 371.53 69.616 371.098 69.832C370.666 70.04 370.146 70.144 369.538 70.144ZM375.917 70.144C375.229 70.144 374.729 69.936 374.417 69.52C374.105 69.104 373.949 68.516 373.949 67.756V64.108H375.329V67.576C375.329 68.048 375.409 68.396 375.569 68.62C375.737 68.844 376.025 68.956 376.433 68.956C376.705 68.956 376.953 68.892 377.177 68.764C377.409 68.628 377.653 68.4 377.909 68.08V64.108H379.289V70H378.161L378.053 69.064H378.005C377.725 69.384 377.417 69.644 377.081 69.844C376.745 70.044 376.357 70.144 375.917 70.144ZM384.253 70.144C383.973 70.144 383.681 70.076 383.377 69.94C383.081 69.804 382.801 69.608 382.537 69.352H382.501L382.381 70H381.289V61.528H382.681V63.712L382.621 64.744H382.657C382.905 64.504 383.185 64.316 383.497 64.18C383.817 64.036 384.137 63.964 384.457 63.964C384.969 63.964 385.401 64.088 385.753 64.336C386.113 64.584 386.389 64.932 386.581 65.38C386.773 65.82 386.869 66.344 386.869 66.952C386.869 67.624 386.745 68.2 386.497 68.68C386.249 69.152 385.925 69.516 385.525 69.772C385.133 70.02 384.709 70.144 384.253 70.144ZM383.977 69.004C384.249 69.004 384.497 68.928 384.721 68.776C384.945 68.624 385.121 68.4 385.249 68.104C385.377 67.8 385.441 67.424 385.441 66.976C385.441 66.584 385.393 66.248 385.297 65.968C385.201 65.688 385.053 65.476 384.853 65.332C384.661 65.18 384.401 65.104 384.073 65.104C383.849 65.104 383.621 65.16 383.389 65.272C383.157 65.384 382.921 65.564 382.681 65.812V68.464C382.897 68.656 383.121 68.796 383.353 68.884C383.585 68.964 383.793 69.004 383.977 69.004ZM391.136 70.144C390.584 70.144 390.056 70.056 389.552 69.88C389.048 69.696 388.612 69.48 388.244 69.232L388.844 68.356C389.196 68.588 389.576 68.772 389.984 68.908C390.392 69.036 390.836 69.1 391.316 69.1C391.724 69.1 392.024 69.032 392.216 68.896C392.416 68.752 392.516 68.584 392.516 68.392C392.516 68.296 392.492 68.208 392.444 68.128C392.404 68.048 392.328 67.976 392.216 67.912C392.104 67.84 391.94 67.772 391.724 67.708C391.508 67.644 391.228 67.576 390.884 67.504C390.1 67.336 389.524 67.108 389.156 66.82C388.788 66.532 388.604 66.168 388.604 65.728C388.604 65.208 388.828 64.784 389.276 64.456C389.732 64.128 390.372 63.964 391.196 63.964C391.684 63.964 392.14 64.044 392.564 64.204C392.996 64.364 393.36 64.544 393.656 64.744L393.02 65.596C392.74 65.404 392.432 65.26 392.096 65.164C391.76 65.06 391.42 65.008 391.076 65.008C390.812 65.008 390.6 65.036 390.44 65.092C390.288 65.148 390.172 65.228 390.092 65.332C390.02 65.428 389.984 65.536 389.984 65.656C389.984 65.864 390.104 66.02 390.344 66.124C390.584 66.228 390.976 66.34 391.52 66.46C392.152 66.596 392.64 66.752 392.984 66.928C393.328 67.096 393.564 67.292 393.692 67.516C393.828 67.732 393.896 68 393.896 68.32C393.896 68.656 393.788 68.964 393.572 69.244C393.364 69.516 393.056 69.736 392.648 69.904C392.24 70.064 391.736 70.144 391.136 70.144ZM398.823 70.144C398.207 70.144 397.651 70.024 397.155 69.784C396.667 69.536 396.279 69.184 395.991 68.728C395.711 68.264 395.571 67.708 395.571 67.06C395.571 66.404 395.723 65.848 396.027 65.392C396.339 64.928 396.751 64.576 397.263 64.336C397.775 64.088 398.327 63.964 398.919 63.964C399.399 63.964 399.823 64.044 400.191 64.204C400.559 64.356 400.863 64.552 401.103 64.792L400.443 65.656C400.211 65.472 399.975 65.332 399.735 65.236C399.503 65.14 399.255 65.092 398.991 65.092C398.599 65.092 398.251 65.176 397.947 65.344C397.651 65.504 397.419 65.732 397.251 66.028C397.083 66.324 396.999 66.668 396.999 67.06C396.999 67.452 397.079 67.796 397.239 68.092C397.407 68.388 397.635 68.616 397.923 68.776C398.219 68.936 398.563 69.016 398.955 69.016C399.291 69.016 399.599 68.952 399.879 68.824C400.159 68.696 400.411 68.544 400.635 68.368L401.211 69.256C400.875 69.544 400.499 69.764 400.083 69.916C399.667 70.068 399.247 70.144 398.823 70.144ZM403.451 70V64.108H404.591L404.711 65.44H404.747C405.043 64.96 405.407 64.596 405.839 64.348C406.279 64.092 406.751 63.964 407.255 63.964C407.495 63.964 407.703 63.984 407.879 64.024C408.055 64.064 408.227 64.124 408.395 64.204L408.107 65.368C407.915 65.304 407.743 65.26 407.591 65.236C407.447 65.204 407.263 65.188 407.039 65.188C406.639 65.188 406.247 65.304 405.863 65.536C405.487 65.768 405.147 66.172 404.843 66.748V70H403.451ZM412.65 70V65.2H410.094V64.108H414.03V70H412.65ZM413.238 63.028C412.958 63.028 412.722 62.944 412.53 62.776C412.346 62.608 412.254 62.384 412.254 62.104C412.254 61.824 412.346 61.6 412.53 61.432C412.722 61.256 412.958 61.168 413.238 61.168C413.526 61.168 413.762 61.256 413.946 61.432C414.13 61.6 414.222 61.824 414.222 62.104C414.222 62.384 414.13 62.608 413.946 62.776C413.762 62.944 413.526 63.028 413.238 63.028ZM420.229 70.144C419.949 70.144 419.657 70.076 419.353 69.94C419.057 69.804 418.777 69.608 418.513 69.352H418.477L418.357 70H417.265V61.528H418.657V63.712L418.597 64.744H418.633C418.881 64.504 419.161 64.316 419.473 64.18C419.793 64.036 420.113 63.964 420.433 63.964C420.945 63.964 421.377 64.088 421.729 64.336C422.089 64.584 422.365 64.932 422.557 65.38C422.749 65.82 422.845 66.344 422.845 66.952C422.845 67.624 422.721 68.2 422.473 68.68C422.225 69.152 421.901 69.516 421.501 69.772C421.109 70.02 420.685 70.144 420.229 70.144ZM419.953 69.004C420.225 69.004 420.473 68.928 420.697 68.776C420.921 68.624 421.097 68.4 421.225 68.104C421.353 67.8 421.417 67.424 421.417 66.976C421.417 66.584 421.369 66.248 421.273 65.968C421.177 65.688 421.029 65.476 420.829 65.332C420.637 65.18 420.377 65.104 420.049 65.104C419.825 65.104 419.597 65.16 419.365 65.272C419.133 65.384 418.897 65.564 418.657 65.812V68.464C418.873 68.656 419.097 68.796 419.329 68.884C419.561 68.964 419.769 69.004 419.953 69.004ZM427.437 70.144C426.837 70.144 426.293 70.024 425.805 69.784C425.317 69.536 424.929 69.184 424.641 68.728C424.353 68.264 424.209 67.704 424.209 67.048C424.209 66.408 424.353 65.86 424.641 65.404C424.929 64.94 425.305 64.584 425.769 64.336C426.233 64.088 426.729 63.964 427.257 63.964C427.841 63.964 428.333 64.084 428.733 64.324C429.141 64.564 429.449 64.896 429.657 65.32C429.873 65.736 429.981 66.216 429.981 66.76C429.981 66.896 429.973 67.028 429.957 67.156C429.949 67.276 429.937 67.376 429.921 67.456H425.205V66.472H429.033L428.769 66.784C428.769 66.2 428.637 65.764 428.373 65.476C428.117 65.18 427.757 65.032 427.293 65.032C426.965 65.032 426.669 65.108 426.405 65.26C426.149 65.412 425.945 65.64 425.793 65.944C425.641 66.24 425.565 66.608 425.565 67.048C425.565 67.504 425.649 67.88 425.817 68.176C425.993 68.472 426.233 68.696 426.537 68.848C426.849 69 427.209 69.076 427.617 69.076C427.929 69.076 428.217 69.032 428.481 68.944C428.745 68.856 429.009 68.736 429.273 68.584L429.741 69.448C429.429 69.648 429.077 69.816 428.685 69.952C428.293 70.08 427.877 70.144 427.437 70.144ZM433.828 70.144C433.076 70.144 432.468 69.872 432.004 69.328C431.54 68.784 431.308 68.028 431.308 67.06C431.308 66.42 431.432 65.868 431.68 65.404C431.928 64.94 432.252 64.584 432.652 64.336C433.052 64.088 433.472 63.964 433.912 63.964C434.248 63.964 434.544 64.024 434.8 64.144C435.064 64.264 435.308 64.436 435.532 64.66H435.568L435.496 63.664V61.528H436.888V70H435.748L435.64 69.316H435.604C435.38 69.54 435.112 69.736 434.8 69.904C434.488 70.064 434.164 70.144 433.828 70.144ZM434.164 69.004C434.404 69.004 434.636 68.948 434.86 68.836C435.084 68.716 435.296 68.536 435.496 68.296V65.644C435.288 65.444 435.08 65.304 434.872 65.224C434.664 65.144 434.452 65.104 434.236 65.104C433.964 65.104 433.712 65.18 433.48 65.332C433.256 65.484 433.076 65.704 432.94 65.992C432.804 66.28 432.736 66.632 432.736 67.048C432.736 67.68 432.86 68.164 433.108 68.5C433.364 68.836 433.716 69.004 434.164 69.004Z" fill="#1F69FF"/>
<path d="M163.222 108.668C163.134 110.598 162.981 112.544 162.763 114.503L161.272 114.337C161.166 115.286 161.045 116.239 160.907 117.194C160.769 118.149 160.617 119.097 160.45 120.038L161.927 120.3C161.584 122.241 161.18 124.151 160.72 126.027L159.263 125.67C158.801 127.551 158.282 129.397 157.708 131.206L159.138 131.659C158.542 133.537 157.888 135.375 157.179 137.17L155.784 136.619C155.073 138.421 154.306 140.177 153.487 141.885L154.839 142.533C153.986 144.313 153.077 146.041 152.116 147.714L150.815 146.967C149.851 148.646 148.835 150.267 147.77 151.826L149.008 152.672C147.894 154.303 146.728 155.869 145.514 157.364L144.349 156.419C143.131 157.92 141.865 159.347 140.555 160.696L141.632 161.741C140.255 163.16 138.831 164.495 137.365 165.742L136.393 164.6C134.926 165.847 133.417 167.003 131.873 168.06L132.721 169.298C131.092 170.413 129.422 171.425 127.718 172.325L127.017 170.999C125.328 171.892 123.606 172.672 121.859 173.332L122.389 174.735C120.551 175.429 118.683 175.997 116.792 176.431L116.457 174.969C114.62 175.39 112.764 175.679 110.894 175.831L111.015 177.326C109.079 177.483 107.128 177.498 105.168 177.364L105.271 175.868C104.34 175.804 103.406 175.705 102.472 175.571C101.537 175.436 100.614 175.267 99.7029 175.065L99.3786 176.53C97.4608 176.105 95.5931 175.539 93.7806 174.842L94.3192 173.442C92.568 172.768 90.8688 171.966 89.2261 171.043L88.4915 172.351C86.8002 171.401 85.1685 170.329 83.6013 169.144L84.5061 167.947C83.0166 166.821 81.5852 165.587 80.2167 164.253L79.1697 165.327C77.7897 163.982 76.4737 162.541 75.2259 161.01L76.3885 160.062C75.2059 158.612 74.085 157.078 73.0299 155.466L71.775 156.288C70.7206 154.678 69.7316 152.994 68.8116 151.244L70.1393 150.546C69.2645 148.882 68.4528 147.155 67.7079 145.372L66.3237 145.95C65.5815 144.172 64.9048 142.341 64.2967 140.461L65.7239 139.999C65.1427 138.203 64.6252 136.361 64.1744 134.478L62.7156 134.827C62.2665 132.951 61.8825 131.037 61.5664 129.089L63.0471 128.848C62.7438 126.979 62.504 125.077 62.3305 123.148L60.8365 123.283C60.6636 121.361 60.5553 119.413 60.5139 117.443L62.0136 117.412C61.9737 115.515 61.9969 113.597 62.0856 111.662L60.5871 111.594C60.6755 109.664 60.8279 107.717 61.0463 105.758L62.537 105.925C62.6429 104.975 62.7645 104.022 62.9022 103.067C63.0399 102.112 63.1922 101.164 63.3588 100.223L61.8818 99.9616C62.2256 98.0208 62.6291 96.1106 63.0894 94.2342L64.5462 94.5916C65.0077 92.7103 65.527 90.864 66.1009 89.0558L64.6712 88.602C65.2673 86.724 65.9213 84.886 66.6298 83.0916L68.025 83.6424C68.7364 81.8406 69.5034 80.0841 70.3223 78.3765L68.9698 77.7279C69.8232 75.9483 70.7323 74.2201 71.6929 72.5475L72.9937 73.2945C73.9579 71.6155 74.9746 69.9945 76.0394 68.4355L74.8007 67.5895C75.9149 65.9582 77.0813 64.3925 78.2953 62.897L79.4599 63.8424C80.6782 62.3415 81.9446 60.9141 83.2538 59.5649L82.1773 58.5203C83.554 57.1016 84.9782 55.766 86.4444 54.519L87.4162 55.6617C88.8834 54.4139 90.392 53.2587 91.936 52.2013L91.0885 50.9637C92.7176 49.848 94.3873 48.8366 96.091 47.9361L96.792 49.2622C98.4815 48.3691 100.203 47.5896 101.95 46.9297L101.42 45.5265C103.258 44.832 105.126 44.2644 107.017 43.8307L107.352 45.2928C109.189 44.8716 111.045 44.5819 112.916 44.4301L112.794 42.935C114.73 42.7779 116.681 42.7629 118.641 42.8971L118.538 44.3936C119.47 44.4573 120.403 44.5561 121.337 44.6908C122.272 44.8255 123.195 44.9943 124.106 45.1961L124.431 43.7316C126.348 44.1564 128.216 44.7219 130.029 45.4193L129.49 46.8192C131.241 47.493 132.94 48.2953 134.583 49.2179L135.318 47.9101C137.009 48.8601 138.641 49.9322 140.208 51.1175L139.303 52.3139C140.793 53.4404 142.224 54.6743 143.592 56.0082L144.639 54.934C146.019 56.2791 147.336 57.7208 148.583 59.2512L147.421 60.1991C148.603 61.6495 149.724 63.1838 150.779 64.7951L152.034 63.9734C153.089 65.5837 154.078 67.2671 154.998 69.0169L153.67 69.715C154.545 71.379 155.356 73.1059 156.101 74.8898L157.485 74.3118C158.228 76.0893 158.904 77.9207 159.512 79.8002L158.085 80.262C158.666 82.0582 159.184 83.9004 159.635 85.7833L161.094 85.434C161.543 87.3099 161.927 89.2244 162.243 91.1726L160.762 91.4129C161.065 93.2822 161.305 95.1839 161.479 97.1132L162.973 96.9788C163.146 98.9003 163.254 100.848 163.295 102.818L161.796 102.85C161.835 104.746 161.812 106.664 161.724 108.599L163.222 108.668Z" stroke="#C74E4E" stroke-width="3" stroke-dasharray="6 6"/>
</svg>
