<svg width="301" height="294" viewBox="0 0 301 294" fill="none" xmlns="http://www.w3.org/2000/svg">
<rect width="301" height="294" fill="white"/>
<path d="M24 20V270H274" stroke="#232A3D" stroke-width="3"/>
<path d="M254 41L32 263" stroke="#232A3D" stroke-width="3"/>
<path d="M137 96.0224C137 92.7087 134.314 90.0224 131 90.0224C127.686 90.0224 125 92.7087 125 96.0224C125 99.3361 127.686 102.022 131 102.022C134.314 102.022 137 99.3361 137 96.0224Z" fill="#F7E08E"/>
<path d="M200 83C200 79.6863 197.314 77 194 77C190.686 77 188 79.6863 188 83C188 86.3137 190.686 89 194 89C197.314 89 200 86.3137 200 83Z" fill="#F7E08E"/>
<path d="M179 66C179 62.6863 176.314 60 173 60C169.686 60 167 62.6863 167 66C167 69.3137 169.686 72 173 72C176.314 72 179 69.3137 179 66Z" fill="#F7E08E"/>
<path d="M131 51C131 47.6863 128.314 45 125 45C121.686 45 119 47.6863 119 51C119 54.3137 121.686 57 125 57C128.314 57 131 54.3137 131 51Z" fill="#F7E08E"/>
<path d="M209.184 56.771C208.277 53.5838 204.958 51.7351 201.771 52.6419C198.584 53.5487 196.735 56.8675 197.642 60.0547C198.549 63.242 201.868 65.0906 205.055 64.1838C208.242 63.2771 210.091 59.9582 209.184 56.771Z" fill="#F7E08E"/>
<path d="M72.1838 150.793C71.2771 147.606 67.9582 145.757 64.771 146.664C61.5838 147.571 59.7351 150.89 60.6419 154.077C61.5487 157.264 64.8675 159.113 68.0547 158.206C71.242 157.299 73.0906 153.981 72.1838 150.793Z" fill="#F7E08E"/>
<path d="M173.184 91.7934C172.277 88.6061 168.958 86.7575 165.771 87.6643C162.584 88.571 160.735 91.8899 161.642 95.0771C162.549 98.2643 165.868 100.113 169.055 99.2062C172.242 98.2995 174.091 94.9806 173.184 91.7934Z" fill="#F7E08E"/>
<path d="M120.184 116.793C119.277 113.606 115.958 111.757 112.771 112.664C109.584 113.571 107.735 116.89 108.642 120.077C109.549 123.264 112.868 125.113 116.055 124.206C119.242 123.299 121.091 119.981 120.184 116.793Z" fill="#F7E08E"/>
<path d="M109.184 148.793C108.277 145.606 104.958 143.757 101.771 144.664C98.5838 145.571 96.7351 148.89 97.6419 152.077C98.5487 155.264 101.868 157.113 105.055 156.206C108.242 155.299 110.091 151.981 109.184 148.793Z" fill="#F7E08E"/>
<path d="M56.1838 60.7934C55.2771 57.6061 51.9582 55.7575 48.771 56.6642C45.5838 57.571 43.7351 60.8899 44.6419 64.0771C45.5487 67.2643 48.8675 69.113 52.0547 68.2062C55.242 67.2994 57.0906 63.9806 56.1838 60.7934Z" fill="#F7E08E"/>
<path d="M126.184 140.793C125.277 137.606 121.958 135.757 118.771 136.664C115.584 137.571 113.735 140.89 114.642 144.077C115.549 147.264 118.868 149.113 122.055 148.206C125.242 147.299 127.091 143.981 126.184 140.793Z" fill="#F7E08E"/>
<path d="M88.1838 131.771C87.2771 128.584 83.9582 126.735 80.771 127.642C77.5838 128.549 75.7351 131.868 76.6419 135.055C77.5487 138.242 80.8675 140.091 84.0547 139.184C87.242 138.277 89.0906 134.958 88.1838 131.771Z" fill="#F7E08E"/>
<path d="M147.184 115.224C146.277 112.036 142.958 110.188 139.771 111.095C136.584 112.001 134.735 115.32 135.642 118.507C136.549 121.695 139.868 123.543 143.055 122.637C146.242 121.73 148.091 118.411 147.184 115.224Z" fill="#F7E08E"/>
<path d="M105.184 168.771C104.277 165.584 100.958 163.735 97.771 164.642C94.5838 165.549 92.7351 168.868 93.6419 172.055C94.5487 175.242 97.8675 177.091 101.055 176.184C104.242 175.277 106.091 171.958 105.184 168.771Z" fill="#F7E08E"/>
<path d="M82.1838 178.771C81.2771 175.584 77.9582 173.735 74.771 174.642C71.5838 175.549 69.7351 178.868 70.6419 182.055C71.5487 185.242 74.8675 187.091 78.0547 186.184C81.242 185.277 83.0906 181.958 82.1838 178.771Z" fill="#F7E08E"/>
<path d="M45.1838 230.771C44.2771 227.584 40.9582 225.735 37.771 226.642C34.5838 227.549 32.7351 230.868 33.6419 234.055C34.5487 237.242 37.8675 239.091 41.0547 238.184C44.242 237.277 46.0906 233.958 45.1838 230.771Z" fill="#F7E08E"/>
<path d="M55.7593 200.712C54.2554 197.759 50.6426 196.585 47.6898 198.089C44.737 199.593 43.5624 203.205 45.0663 206.158C46.5701 209.111 50.183 210.286 53.1358 208.782C56.0886 207.278 57.2632 203.665 55.7593 200.712Z" fill="#F7E08E"/>
<path d="M55.1838 125.793C54.2771 122.606 50.9582 120.757 47.771 121.664C44.5838 122.571 42.7351 125.89 43.6419 129.077C44.5487 132.264 47.8675 134.113 51.0547 133.206C54.242 132.299 56.0906 128.981 55.1838 125.793Z" fill="#F7E08E"/>
<path d="M86.1838 48.771C85.2771 45.5838 81.9582 43.7351 78.771 44.6419C75.5838 45.5487 73.7351 48.8675 74.6419 52.0547C75.5487 55.242 78.8675 57.0906 82.0547 56.1838C85.242 55.2771 87.0906 51.9582 86.1838 48.771Z" fill="#F7E08E"/>
<path d="M126.184 80.771C125.277 77.5838 121.958 75.7351 118.771 76.6419C115.584 77.5487 113.735 80.8675 114.642 84.0547C115.549 87.242 118.868 89.0906 122.055 88.1838C125.242 87.2771 127.091 83.9582 126.184 80.771Z" fill="#F7E08E"/>
<path d="M45.1838 178.771C44.2771 175.584 40.9582 173.735 37.771 174.642C34.5838 175.549 32.7351 178.868 33.6419 182.055C34.5487 185.242 37.8675 187.091 41.0547 186.184C44.242 185.277 46.0906 181.958 45.1838 178.771Z" fill="#F7E08E"/>
<path d="M194.184 45.771C193.277 42.5838 189.958 40.7351 186.771 41.6419C183.584 42.5487 181.735 45.8675 182.642 49.0547C183.549 52.242 186.868 54.0906 190.055 53.1838C193.242 52.2771 195.091 48.9582 194.184 45.771Z" fill="#F7E08E"/>
<path d="M48.1838 86.771C47.2771 83.5838 43.9582 81.7351 40.771 82.6419C37.5838 83.5487 35.7351 86.8675 36.6419 90.0547C37.5487 93.242 40.8675 95.0906 44.0547 94.1838C47.242 93.2771 49.0906 89.9582 48.1838 86.771Z" fill="#F7E08E"/>
<path d="M101.184 65.771C100.277 62.5838 96.9582 60.7351 93.771 61.6419C90.5838 62.5487 88.7351 65.8675 89.6419 69.0547C90.5487 72.242 93.8675 74.0906 97.0547 73.1838C100.242 72.2771 102.091 68.9582 101.184 65.771Z" fill="#F7E08E"/>
<path d="M87.1838 104.793C86.2771 101.606 82.9582 99.7575 79.771 100.664C76.5838 101.571 74.7351 104.89 75.6419 108.077C76.5487 111.264 79.8675 113.113 83.0547 112.206C86.242 111.299 88.0906 107.981 87.1838 104.793Z" fill="#F7E08E"/>
<path d="M143.184 66.7934C142.277 63.6061 138.958 61.7575 135.771 62.6643C132.584 63.571 130.735 66.8899 131.642 70.0771C132.549 73.2643 135.868 75.113 139.055 74.2062C142.242 73.2994 144.091 69.9806 143.184 66.7934Z" fill="#F7E08E"/>
<path d="M83.1838 80.2237C82.2771 77.0365 78.9582 75.1878 75.771 76.0946C72.5838 77.0014 70.7351 80.3202 71.6419 83.5074C72.5487 86.6947 75.8675 88.5433 79.0547 87.6365C82.242 86.7298 84.0906 83.4109 83.1838 80.2237Z" fill="#F7E08E"/>
<path d="M165.184 166.793C164.277 163.606 160.958 161.757 157.771 162.664C154.584 163.571 152.735 166.89 153.642 170.077C154.549 173.264 157.868 175.113 161.055 174.206C164.242 173.299 166.091 169.981 165.184 166.793Z" fill="#9B51E0"/>
<path d="M237 240.978C237 237.664 234.314 234.978 231 234.978C227.686 234.978 225 237.664 225 240.978C225 244.291 227.686 246.978 231 246.978C234.314 246.978 237 244.291 237 240.978Z" fill="#9B51E0"/>
<path d="M165 197.022C165 193.709 162.314 191.022 159 191.022C155.686 191.022 153 193.709 153 197.022C153 200.336 155.686 203.022 159 203.022C162.314 203.022 165 200.336 165 197.022Z" fill="#9B51E0"/>
<path d="M209 134C209 130.686 206.314 128 203 128C199.686 128 197 130.686 197 134C197 137.314 199.686 140 203 140C206.314 140 209 137.314 209 134Z" fill="#9B51E0"/>
<path d="M197 192.022C197 188.709 194.314 186.022 191 186.022C187.686 186.022 185 188.709 185 192.022C185 195.336 187.686 198.022 191 198.022C194.314 198.022 197 195.336 197 192.022Z" fill="#9B51E0"/>
<path d="M215 209.022C215 205.709 212.314 203.022 209 203.022C205.686 203.022 203 205.709 203 209.022C203 212.336 205.686 215.022 209 215.022C212.314 215.022 215 212.336 215 209.022Z" fill="#9B51E0"/>
<path d="M157 218.022C157 214.709 154.314 212.022 151 212.022C147.686 212.022 145 214.709 145 218.022C145 221.336 147.686 224.022 151 224.022C154.314 224.022 157 221.336 157 218.022Z" fill="#9B51E0"/>
<path d="M133 191C133 187.686 130.314 185 127 185C123.686 185 121 187.686 121 191C121 194.314 123.686 197 127 197C130.314 197 133 194.314 133 191Z" fill="#9B51E0"/>
<path d="M236 209.022C236 205.709 233.314 203.022 230 203.022C226.686 203.022 224 205.709 224 209.022C224 212.336 226.686 215.022 230 215.022C233.314 215.022 236 212.336 236 209.022Z" fill="#9B51E0"/>
<path d="M224 188.022C224 184.709 221.314 182.022 218 182.022C214.686 182.022 212 184.709 212 188.022C212 191.336 214.686 194.022 218 194.022C221.314 194.022 224 191.336 224 188.022Z" fill="#9B51E0"/>
<path d="M260 159C260 155.686 257.314 153 254 153C250.686 153 248 155.686 248 159C248 162.314 250.686 165 254 165C257.314 165 260 162.314 260 159Z" fill="#9B51E0"/>
<path d="M235 166.022C235 162.709 232.314 160.022 229 160.022C225.686 160.022 223 162.709 223 166.022C223 169.336 225.686 172.022 229 172.022C232.314 172.022 235 169.336 235 166.022Z" fill="#9B51E0"/>
<path d="M187 153C187 149.686 184.314 147 181 147C177.686 147 175 149.686 175 153C175 156.314 177.686 159 181 159C184.314 159 187 156.314 187 153Z" fill="#9B51E0"/>
<path d="M241 144C241 140.686 238.314 138 235 138C231.686 138 229 140.686 229 144C229 147.314 231.686 150 235 150C238.314 150 241 147.314 241 144Z" fill="#9B51E0"/>
<path d="M244 113C244 109.686 241.314 107 238 107C234.686 107 232 109.686 232 113C232 116.314 234.686 119 238 119C241.314 119 244 116.314 244 113Z" fill="#9B51E0"/>
<path d="M230 94C230 90.6863 227.314 88 224 88C220.686 88 218 90.6863 218 94C218 97.3137 220.686 100 224 100C227.314 100 230 97.3137 230 94Z" fill="#9B51E0"/>
<path d="M261 73C261 69.6863 258.314 67 255 67C251.686 67 249 69.6863 249 73C249 76.3137 251.686 79 255 79C258.314 79 261 76.3137 261 73Z" fill="#9B51E0"/>
<path d="M267 118.022C267 114.709 264.314 112.022 261 112.022C257.686 112.022 255 114.709 255 118.022C255 121.336 257.686 124.022 261 124.022C264.314 124.022 267 121.336 267 118.022Z" fill="#9B51E0"/>
<path d="M214 169.022C214 165.709 211.314 163.022 208 163.022C204.686 163.022 202 165.709 202 169.022C202 172.336 204.686 175.022 208 175.022C211.314 175.022 214 172.336 214 169.022Z" fill="#9B51E0"/>
<path d="M197 222.022C197 218.709 194.314 216.022 191 216.022C187.686 216.022 185 218.709 185 222.022C185 225.336 187.686 228.022 191 228.022C194.314 228.022 197 225.336 197 222.022Z" fill="#9B51E0"/>
<path d="M184 253.022C184 249.709 181.314 247.022 178 247.022C174.686 247.022 172 249.709 172 253.022C172 256.336 174.686 259.022 178 259.022C181.314 259.022 184 256.336 184 253.022Z" fill="#9B51E0"/>
<path d="M128 257.022C128 253.709 125.314 251.022 122 251.022C118.686 251.022 116 253.709 116 257.022C116 260.336 118.686 263.022 122 263.022C125.314 263.022 128 260.336 128 257.022Z" fill="#9B51E0"/>
<path d="M172 234.022C172 230.709 169.314 228.022 166 228.022C162.686 228.022 160 230.709 160 234.022C160 237.336 162.686 240.022 166 240.022C169.314 240.022 172 237.336 172 234.022Z" fill="#9B51E0"/>
<path d="M158 253.022C158 249.709 155.314 247.022 152 247.022C148.686 247.022 146 249.709 146 253.022C146 256.336 148.686 259.022 152 259.022C155.314 259.022 158 256.336 158 253.022Z" fill="#9B51E0"/>
<path d="M254 239C254 235.686 251.314 233 248 233C244.686 233 242 235.686 242 239C242 242.314 244.686 245 248 245C251.314 245 254 242.314 254 239Z" fill="#9B51E0"/>
<path d="M94 232C94 228.686 91.3137 226 88 226C84.6863 226 82 228.686 82 232C82 235.314 84.6863 238 88 238C91.3137 238 94 235.314 94 232Z" fill="#9B51E0"/>
</svg>
