<svg width="498" height="310" viewBox="0 0 498 310" fill="none" xmlns="http://www.w3.org/2000/svg">
<rect width="498" height="310" fill="white"/>
<path d="M56 46V283H306" stroke="#232A3D" stroke-width="2"/>
<path d="M141 124.982C141 121.678 138.314 119 135 119C131.686 119 129 121.678 129 124.982C129 128.285 131.686 130.963 135 130.963C138.314 130.963 141 128.285 141 124.982Z" fill="#9B51E0"/>
<path d="M160.184 135.753C159.277 132.576 155.958 130.733 152.771 131.637C149.584 132.541 147.735 135.85 148.642 139.027C149.549 142.205 152.868 144.048 156.055 143.144C159.242 142.24 161.091 138.931 160.184 135.753Z" fill="#1F69FF"/>
<path d="M222.184 207.753C221.277 204.576 217.958 202.733 214.771 203.637C211.584 204.541 209.735 207.85 210.642 211.027C211.549 214.205 214.868 216.048 218.055 215.144C221.242 214.24 223.091 210.931 222.184 207.753Z" fill="#1F69FF"/>
<path d="M184.184 115.753C183.277 112.576 179.958 110.733 176.771 111.637C173.584 112.541 171.735 115.85 172.642 119.027C173.549 122.205 176.868 124.048 180.055 123.144C183.242 122.24 185.091 118.931 184.184 115.753Z" fill="#9B51E0"/>
<path d="M249.184 196.753C248.277 193.576 244.958 191.733 241.771 192.637C238.584 193.541 236.735 196.85 237.642 200.027C238.549 203.205 241.868 205.048 245.055 204.144C248.242 203.24 250.091 199.931 249.184 196.753Z" fill="#1F69FF"/>
<path d="M142.416 198.33C140.912 195.386 137.299 194.215 134.347 195.715C131.394 197.214 130.219 200.816 131.723 203.76C133.227 206.703 136.84 207.874 139.793 206.375C142.745 204.876 143.92 201.274 142.416 198.33Z" fill="#1F69FF"/>
<path d="M123.416 209.33C121.912 206.386 118.299 205.215 115.347 206.715C112.394 208.214 111.219 211.816 112.723 214.76C114.227 217.703 117.84 218.874 120.793 217.375C123.745 215.876 124.92 212.274 123.416 209.33Z" fill="#9B51E0"/>
<path d="M142.416 178.33C140.912 175.386 137.299 174.215 134.347 175.715C131.394 177.214 130.219 180.816 131.723 183.76C133.227 186.703 136.84 187.874 139.793 186.375C142.745 184.876 143.92 181.274 142.416 178.33Z" fill="#9B51E0"/>
<path d="M169.416 175.33C167.912 172.386 164.299 171.215 161.347 172.715C158.394 174.214 157.219 177.816 158.723 180.76C160.227 183.703 163.84 184.874 166.793 183.375C169.745 181.876 170.92 178.274 169.416 175.33Z" fill="#1F69FF"/>
<path d="M248.184 160.753C247.277 157.576 243.958 155.733 240.771 156.637C237.584 157.541 235.735 160.85 236.642 164.027C237.549 167.205 240.868 169.048 244.055 168.144C247.242 167.24 249.091 163.931 248.184 160.753Z" fill="#1F69FF"/>
<path d="M118.184 145.753C117.277 142.576 113.958 140.733 110.771 141.637C107.584 142.541 105.735 145.85 106.642 149.027C107.549 152.205 110.868 154.048 114.055 153.144C117.242 152.24 119.091 148.931 118.184 145.753Z" fill="#9B51E0"/>
<path d="M195.184 215.753C194.277 212.576 190.958 210.733 187.771 211.637C184.584 212.541 182.735 215.85 183.642 219.027C184.549 222.205 187.868 224.048 191.055 223.144C194.242 222.24 196.091 218.931 195.184 215.753Z" fill="#1F69FF"/>
<path d="M130 93.9817C130 90.6781 127.314 88 124 88C120.686 88 118 90.6781 118 93.9817C118 97.2853 120.686 99.9634 124 99.9634C127.314 99.9634 130 97.2853 130 93.9817Z" fill="#9B51E0"/>
<path d="M154 222.982C154 219.678 151.314 217 148 217C144.686 217 142 219.678 142 222.982C142 226.285 144.686 228.963 148 228.963C151.314 228.963 154 226.285 154 222.982Z" fill="#1F69FF"/>
<path d="M209 75.9817C209 72.6781 206.314 70 203 70C199.686 70 197 72.6781 197 75.9817C197 79.2853 199.686 81.9634 203 81.9634C206.314 81.9634 209 79.2853 209 75.9817Z" fill="#9B51E0"/>
<path d="M87 179.982C87 176.678 84.3137 174 81 174C77.6863 174 75 176.678 75 179.982C75 183.285 77.6863 185.963 81 185.963C84.3137 185.963 87 183.285 87 179.982Z" fill="#9B51E0"/>
<path d="M87 154.982C87 151.678 84.3137 149 81 149C77.6863 149 75 151.678 75 154.982C75 158.285 77.6863 160.963 81 160.963C84.3137 160.963 87 158.285 87 154.982Z" fill="#9B51E0"/>
<path d="M117 167.982C117 164.678 114.314 162 111 162C107.686 162 105 164.678 105 167.982C105 171.285 107.686 173.963 111 173.963C114.314 173.963 117 171.285 117 167.982Z" fill="#9B51E0"/>
<path d="M215 124.982C215 121.678 212.314 119 209 119C205.686 119 203 121.678 203 124.982C203 128.285 205.686 130.963 209 130.963C212.314 130.963 215 128.285 215 124.982Z" fill="#9B51E0"/>
<path d="M244 110.982C244 107.678 241.314 105 238 105C234.686 105 232 107.678 232 110.982C232 114.285 234.686 116.963 238 116.963C241.314 116.963 244 114.285 244 110.982Z" fill="#9B51E0"/>
<path d="M263 124.982C263 121.678 260.314 119 257 119C253.686 119 251 121.678 251 124.982C251 128.285 253.686 130.963 257 130.963C260.314 130.963 263 128.285 263 124.982Z" fill="#9B51E0"/>
<path d="M178 194.982C178 191.678 175.314 189 172 189C168.686 189 166 191.678 166 194.982C166 198.285 168.686 200.963 172 200.963C175.314 200.963 178 198.285 178 194.982Z" fill="#9B51E0"/>
<path d="M93 105.982C93 102.678 90.3137 100 87 100C83.6863 100 81 102.678 81 105.982C81 109.285 83.6863 111.963 87 111.963C90.3137 111.963 93 109.285 93 105.982Z" fill="#9B51E0"/>
<path d="M227 79.9817C227 76.6781 224.314 74 221 74C217.686 74 215 76.6781 215 79.9817C215 83.2853 217.686 85.9634 221 85.9634C224.314 85.9634 227 83.2853 227 79.9817Z" fill="#9B51E0"/>
<path d="M231 129.982C231 126.678 228.314 124 225 124C221.686 124 219 126.678 219 129.982C219 133.285 221.686 135.963 225 135.963C228.314 135.963 231 133.285 231 129.982Z" fill="#1F69FF"/>
<path d="M215 179.982C215 176.678 212.314 174 209 174C205.686 174 203 176.678 203 179.982C203 183.285 205.686 185.963 209 185.963C212.314 185.963 215 183.285 215 179.982Z" fill="#1F69FF"/>
<path d="M235 147.982C235 144.678 232.314 142 229 142C225.686 142 223 144.678 223 147.982C223 151.285 225.686 153.963 229 153.963C232.314 153.963 235 151.285 235 147.982Z" fill="#9B51E0"/>
<path d="M193 153.982C193 150.678 190.314 148 187 148C183.686 148 181 150.678 181 153.982C181 157.285 183.686 159.963 187 159.963C190.314 159.963 193 157.285 193 153.982Z" fill="#1F69FF"/>
<path d="M175 87.9817C175 84.6781 172.314 82 169 82C165.686 82 163 84.6781 163 87.9817C163 91.2853 165.686 93.9634 169 93.9634C172.314 93.9634 175 91.2853 175 87.9817Z" fill="#9B51E0"/>
<path d="M105 224.982C105 221.678 102.314 219 99 219C95.6863 219 93 221.678 93 224.982C93 228.285 95.6863 230.963 99 230.963C102.314 230.963 105 228.285 105 224.982Z" fill="#1F69FF"/>
<path d="M147 259.982C147 256.678 144.314 254 141 254C137.686 254 135 256.678 135 259.982C135 263.285 137.686 265.963 141 265.963C144.314 265.963 147 263.285 147 259.982Z" fill="#1F69FF"/>
<path d="M117 247.982C117 244.678 114.314 242 111 242C107.686 242 105 244.678 105 247.982C105 251.285 107.686 253.963 111 253.963C114.314 253.963 117 251.285 117 247.982Z" fill="#1F69FF"/>
<rect x="314.5" y="43.5" width="19" height="19" fill="#1F69FF" stroke="#232A3D"/>
<rect x="314.5" y="70.5" width="19" height="19" fill="#C74E4E" stroke="#232A3D"/>
<rect x="314.5" y="16.5" width="19" height="19" fill="#9B51E0" stroke="#232A3D"/>
<path d="M345.647 30.144C345.095 30.144 344.567 30.044 344.063 29.844C343.559 29.644 343.111 29.36 342.719 28.992L343.535 28.044C343.831 28.308 344.167 28.524 344.543 28.692C344.919 28.852 345.315 28.932 345.731 28.932C346.187 28.932 346.535 28.844 346.775 28.668C347.015 28.484 347.135 28.256 347.135 27.984C347.135 27.752 347.079 27.568 346.967 27.432C346.855 27.288 346.699 27.168 346.499 27.072C346.307 26.976 346.079 26.876 345.815 26.772L344.747 26.304C344.475 26.192 344.207 26.048 343.943 25.872C343.687 25.696 343.475 25.472 343.307 25.2C343.147 24.928 343.067 24.6 343.067 24.216C343.067 23.8 343.183 23.428 343.415 23.1C343.647 22.764 343.967 22.5 344.375 22.308C344.791 22.108 345.263 22.008 345.791 22.008C346.271 22.008 346.727 22.1 347.159 22.284C347.599 22.46 347.983 22.7 348.311 23.004L347.591 23.892C347.327 23.676 347.047 23.512 346.751 23.4C346.463 23.28 346.119 23.22 345.719 23.22C345.351 23.22 345.051 23.3 344.819 23.46C344.587 23.62 344.471 23.848 344.471 24.144C344.471 24.344 344.535 24.508 344.663 24.636C344.791 24.764 344.955 24.876 345.155 24.972C345.363 25.068 345.583 25.16 345.815 25.248L346.847 25.692C347.183 25.82 347.479 25.976 347.735 26.16C347.991 26.344 348.191 26.572 348.335 26.844C348.479 27.108 348.551 27.432 348.551 27.816C348.551 28.24 348.435 28.628 348.203 28.98C347.971 29.332 347.639 29.616 347.207 29.832C346.775 30.04 346.255 30.144 345.647 30.144ZM352.027 30.144C351.339 30.144 350.839 29.936 350.527 29.52C350.215 29.104 350.059 28.516 350.059 27.756V24.108H351.439V27.576C351.439 28.048 351.519 28.396 351.679 28.62C351.847 28.844 352.135 28.956 352.543 28.956C352.815 28.956 353.063 28.892 353.287 28.764C353.519 28.628 353.763 28.4 354.019 28.08V24.108H355.399V30H354.271L354.163 29.064H354.115C353.835 29.384 353.527 29.644 353.191 29.844C352.855 30.044 352.467 30.144 352.027 30.144ZM360.362 30.144C360.082 30.144 359.79 30.076 359.486 29.94C359.19 29.804 358.91 29.608 358.646 29.352H358.61L358.49 30H357.398V21.528H358.79V23.712L358.73 24.744H358.766C359.014 24.504 359.294 24.316 359.606 24.18C359.926 24.036 360.246 23.964 360.566 23.964C361.078 23.964 361.51 24.088 361.862 24.336C362.222 24.584 362.498 24.932 362.69 25.38C362.882 25.82 362.978 26.344 362.978 26.952C362.978 27.624 362.854 28.2 362.606 28.68C362.358 29.152 362.034 29.516 361.634 29.772C361.242 30.02 360.818 30.144 360.362 30.144ZM360.086 29.004C360.358 29.004 360.606 28.928 360.83 28.776C361.054 28.624 361.23 28.4 361.358 28.104C361.486 27.8 361.55 27.424 361.55 26.976C361.55 26.584 361.502 26.248 361.406 25.968C361.31 25.688 361.162 25.476 360.962 25.332C360.77 25.18 360.51 25.104 360.182 25.104C359.958 25.104 359.73 25.16 359.498 25.272C359.266 25.384 359.03 25.564 358.79 25.812V28.464C359.006 28.656 359.23 28.796 359.462 28.884C359.694 28.964 359.902 29.004 360.086 29.004ZM367.245 30.144C366.693 30.144 366.165 30.056 365.661 29.88C365.157 29.696 364.721 29.48 364.353 29.232L364.953 28.356C365.305 28.588 365.685 28.772 366.093 28.908C366.501 29.036 366.945 29.1 367.425 29.1C367.833 29.1 368.133 29.032 368.325 28.896C368.525 28.752 368.625 28.584 368.625 28.392C368.625 28.296 368.601 28.208 368.553 28.128C368.513 28.048 368.437 27.976 368.325 27.912C368.213 27.84 368.049 27.772 367.833 27.708C367.617 27.644 367.337 27.576 366.993 27.504C366.209 27.336 365.633 27.108 365.265 26.82C364.897 26.532 364.713 26.168 364.713 25.728C364.713 25.208 364.937 24.784 365.385 24.456C365.841 24.128 366.481 23.964 367.305 23.964C367.793 23.964 368.249 24.044 368.673 24.204C369.105 24.364 369.469 24.544 369.765 24.744L369.129 25.596C368.849 25.404 368.541 25.26 368.205 25.164C367.869 25.06 367.529 25.008 367.185 25.008C366.921 25.008 366.709 25.036 366.549 25.092C366.397 25.148 366.281 25.228 366.201 25.332C366.129 25.428 366.093 25.536 366.093 25.656C366.093 25.864 366.213 26.02 366.453 26.124C366.693 26.228 367.085 26.34 367.629 26.46C368.261 26.596 368.749 26.752 369.093 26.928C369.437 27.096 369.673 27.292 369.801 27.516C369.937 27.732 370.005 28 370.005 28.32C370.005 28.656 369.897 28.964 369.681 29.244C369.473 29.516 369.165 29.736 368.757 29.904C368.349 30.064 367.845 30.144 367.245 30.144ZM374.933 30.144C374.317 30.144 373.761 30.024 373.265 29.784C372.777 29.536 372.389 29.184 372.101 28.728C371.821 28.264 371.681 27.708 371.681 27.06C371.681 26.404 371.833 25.848 372.137 25.392C372.449 24.928 372.861 24.576 373.373 24.336C373.885 24.088 374.437 23.964 375.029 23.964C375.509 23.964 375.933 24.044 376.301 24.204C376.669 24.356 376.973 24.552 377.213 24.792L376.553 25.656C376.321 25.472 376.085 25.332 375.845 25.236C375.613 25.14 375.365 25.092 375.101 25.092C374.709 25.092 374.361 25.176 374.057 25.344C373.761 25.504 373.529 25.732 373.361 26.028C373.193 26.324 373.109 26.668 373.109 27.06C373.109 27.452 373.189 27.796 373.349 28.092C373.517 28.388 373.745 28.616 374.033 28.776C374.329 28.936 374.673 29.016 375.065 29.016C375.401 29.016 375.709 28.952 375.989 28.824C376.269 28.696 376.521 28.544 376.745 28.368L377.321 29.256C376.985 29.544 376.609 29.764 376.193 29.916C375.777 30.068 375.357 30.144 374.933 30.144ZM379.56 30V24.108H380.7L380.82 25.44H380.856C381.152 24.96 381.516 24.596 381.948 24.348C382.388 24.092 382.86 23.964 383.364 23.964C383.604 23.964 383.812 23.984 383.988 24.024C384.164 24.064 384.336 24.124 384.504 24.204L384.216 25.368C384.024 25.304 383.852 25.26 383.7 25.236C383.556 25.204 383.372 25.188 383.148 25.188C382.748 25.188 382.356 25.304 381.972 25.536C381.596 25.768 381.256 26.172 380.952 26.748V30H379.56ZM388.759 30V25.2H386.203V24.108H390.139V30H388.759ZM389.347 23.028C389.067 23.028 388.831 22.944 388.639 22.776C388.455 22.608 388.363 22.384 388.363 22.104C388.363 21.824 388.455 21.6 388.639 21.432C388.831 21.256 389.067 21.168 389.347 21.168C389.635 21.168 389.871 21.256 390.055 21.432C390.239 21.6 390.331 21.824 390.331 22.104C390.331 22.384 390.239 22.608 390.055 22.776C389.871 22.944 389.635 23.028 389.347 23.028ZM396.339 30.144C396.059 30.144 395.767 30.076 395.463 29.94C395.167 29.804 394.887 29.608 394.623 29.352H394.587L394.467 30H393.375V21.528H394.767V23.712L394.707 24.744H394.743C394.991 24.504 395.271 24.316 395.583 24.18C395.903 24.036 396.223 23.964 396.543 23.964C397.055 23.964 397.487 24.088 397.839 24.336C398.199 24.584 398.475 24.932 398.667 25.38C398.859 25.82 398.955 26.344 398.955 26.952C398.955 27.624 398.831 28.2 398.583 28.68C398.335 29.152 398.011 29.516 397.611 29.772C397.219 30.02 396.795 30.144 396.339 30.144ZM396.063 29.004C396.335 29.004 396.583 28.928 396.807 28.776C397.031 28.624 397.207 28.4 397.335 28.104C397.463 27.8 397.527 27.424 397.527 26.976C397.527 26.584 397.479 26.248 397.383 25.968C397.287 25.688 397.139 25.476 396.939 25.332C396.747 25.18 396.487 25.104 396.159 25.104C395.935 25.104 395.707 25.16 395.475 25.272C395.243 25.384 395.007 25.564 394.767 25.812V28.464C394.983 28.656 395.207 28.796 395.439 28.884C395.671 28.964 395.879 29.004 396.063 29.004ZM403.546 30.144C402.946 30.144 402.402 30.024 401.914 29.784C401.426 29.536 401.038 29.184 400.75 28.728C400.462 28.264 400.318 27.704 400.318 27.048C400.318 26.408 400.462 25.86 400.75 25.404C401.038 24.94 401.414 24.584 401.878 24.336C402.342 24.088 402.838 23.964 403.366 23.964C403.95 23.964 404.442 24.084 404.842 24.324C405.25 24.564 405.558 24.896 405.766 25.32C405.982 25.736 406.09 26.216 406.09 26.76C406.09 26.896 406.082 27.028 406.066 27.156C406.058 27.276 406.046 27.376 406.03 27.456H401.314V26.472H405.142L404.878 26.784C404.878 26.2 404.746 25.764 404.482 25.476C404.226 25.18 403.866 25.032 403.402 25.032C403.074 25.032 402.778 25.108 402.514 25.26C402.258 25.412 402.054 25.64 401.902 25.944C401.75 26.24 401.674 26.608 401.674 27.048C401.674 27.504 401.758 27.88 401.926 28.176C402.102 28.472 402.342 28.696 402.646 28.848C402.958 29 403.318 29.076 403.726 29.076C404.038 29.076 404.326 29.032 404.59 28.944C404.854 28.856 405.118 28.736 405.382 28.584L405.85 29.448C405.538 29.648 405.186 29.816 404.794 29.952C404.402 30.08 403.986 30.144 403.546 30.144ZM409.937 30.144C409.185 30.144 408.577 29.872 408.113 29.328C407.649 28.784 407.417 28.028 407.417 27.06C407.417 26.42 407.541 25.868 407.789 25.404C408.037 24.94 408.361 24.584 408.761 24.336C409.161 24.088 409.581 23.964 410.021 23.964C410.357 23.964 410.653 24.024 410.909 24.144C411.173 24.264 411.417 24.436 411.641 24.66H411.677L411.605 23.664V21.528H412.997V30H411.857L411.749 29.316H411.713C411.489 29.54 411.221 29.736 410.909 29.904C410.597 30.064 410.273 30.144 409.937 30.144ZM410.273 29.004C410.513 29.004 410.745 28.948 410.969 28.836C411.193 28.716 411.405 28.536 411.605 28.296V25.644C411.397 25.444 411.189 25.304 410.981 25.224C410.773 25.144 410.561 25.104 410.345 25.104C410.073 25.104 409.821 25.18 409.589 25.332C409.365 25.484 409.185 25.704 409.049 25.992C408.913 26.28 408.845 26.632 408.845 27.048C408.845 27.68 408.969 28.164 409.217 28.5C409.473 28.836 409.825 29.004 410.273 29.004Z" fill="#9B51E0"/>
<path d="M343.021 58V50.152H344.485L346.561 54.556L347.269 56.236H347.305C347.281 55.836 347.241 55.4 347.185 54.928C347.137 54.456 347.113 54 347.113 53.56V50.152H348.445V58H346.981L344.905 53.584L344.197 51.916H344.161C344.185 52.332 344.221 52.772 344.269 53.236C344.325 53.692 344.353 54.136 344.353 54.568V58H343.021ZM352.928 58.144C352.408 58.144 351.924 58.024 351.476 57.784C351.028 57.536 350.664 57.184 350.384 56.728C350.104 56.264 349.964 55.708 349.964 55.06C349.964 54.404 350.104 53.848 350.384 53.392C350.664 52.928 351.028 52.576 351.476 52.336C351.924 52.088 352.408 51.964 352.928 51.964C353.448 51.964 353.932 52.088 354.38 52.336C354.828 52.576 355.192 52.928 355.472 53.392C355.752 53.848 355.892 54.404 355.892 55.06C355.892 55.708 355.752 56.264 355.472 56.728C355.192 57.184 354.828 57.536 354.38 57.784C353.932 58.024 353.448 58.144 352.928 58.144ZM352.928 57.016C353.248 57.016 353.524 56.936 353.756 56.776C353.988 56.616 354.164 56.388 354.284 56.092C354.404 55.796 354.464 55.452 354.464 55.06C354.464 54.668 354.404 54.324 354.284 54.028C354.164 53.732 353.988 53.504 353.756 53.344C353.524 53.176 353.248 53.092 352.928 53.092C352.608 53.092 352.332 53.176 352.1 53.344C351.876 53.504 351.7 53.732 351.572 54.028C351.452 54.324 351.392 54.668 351.392 55.06C351.392 55.452 351.452 55.796 351.572 56.092C351.7 56.388 351.876 56.616 352.1 56.776C352.332 56.936 352.608 57.016 352.928 57.016ZM361.215 58.144C360.615 58.144 360.139 58.04 359.787 57.832C359.435 57.616 359.183 57.32 359.031 56.944C358.879 56.568 358.803 56.132 358.803 55.636V53.2H357.231V52.168L358.863 52.108L359.043 50.26H360.183V52.108H362.871V53.2H360.183V55.624C360.183 55.944 360.227 56.212 360.315 56.428C360.403 56.636 360.547 56.792 360.747 56.896C360.947 56.992 361.211 57.04 361.539 57.04C361.795 57.04 362.027 57.02 362.235 56.98C362.443 56.94 362.643 56.884 362.835 56.812L363.099 57.808C362.835 57.896 362.551 57.972 362.247 58.036C361.943 58.108 361.599 58.144 361.215 58.144ZM374.538 58.144C373.986 58.144 373.458 58.044 372.954 57.844C372.45 57.644 372.002 57.36 371.61 56.992L372.426 56.044C372.722 56.308 373.058 56.524 373.434 56.692C373.81 56.852 374.206 56.932 374.622 56.932C375.078 56.932 375.426 56.844 375.666 56.668C375.906 56.484 376.026 56.256 376.026 55.984C376.026 55.752 375.97 55.568 375.858 55.432C375.746 55.288 375.59 55.168 375.39 55.072C375.198 54.976 374.97 54.876 374.706 54.772L373.638 54.304C373.366 54.192 373.098 54.048 372.834 53.872C372.578 53.696 372.366 53.472 372.198 53.2C372.038 52.928 371.958 52.6 371.958 52.216C371.958 51.8 372.074 51.428 372.306 51.1C372.538 50.764 372.858 50.5 373.266 50.308C373.682 50.108 374.154 50.008 374.682 50.008C375.162 50.008 375.618 50.1 376.05 50.284C376.49 50.46 376.874 50.7 377.202 51.004L376.482 51.892C376.218 51.676 375.938 51.512 375.642 51.4C375.354 51.28 375.01 51.22 374.61 51.22C374.242 51.22 373.942 51.3 373.71 51.46C373.478 51.62 373.362 51.848 373.362 52.144C373.362 52.344 373.426 52.508 373.554 52.636C373.682 52.764 373.846 52.876 374.046 52.972C374.254 53.068 374.474 53.16 374.706 53.248L375.738 53.692C376.074 53.82 376.37 53.976 376.626 54.16C376.882 54.344 377.082 54.572 377.226 54.844C377.37 55.108 377.442 55.432 377.442 55.816C377.442 56.24 377.326 56.628 377.094 56.98C376.862 57.332 376.53 57.616 376.098 57.832C375.666 58.04 375.146 58.144 374.538 58.144ZM380.917 58.144C380.229 58.144 379.729 57.936 379.417 57.52C379.105 57.104 378.949 56.516 378.949 55.756V52.108H380.329V55.576C380.329 56.048 380.409 56.396 380.569 56.62C380.737 56.844 381.025 56.956 381.433 56.956C381.705 56.956 381.953 56.892 382.177 56.764C382.409 56.628 382.653 56.4 382.909 56.08V52.108H384.289V58H383.161L383.053 57.064H383.005C382.725 57.384 382.417 57.644 382.081 57.844C381.745 58.044 381.357 58.144 380.917 58.144ZM389.253 58.144C388.973 58.144 388.681 58.076 388.377 57.94C388.081 57.804 387.801 57.608 387.537 57.352H387.501L387.381 58H386.289V49.528H387.681V51.712L387.621 52.744H387.657C387.905 52.504 388.185 52.316 388.497 52.18C388.817 52.036 389.137 51.964 389.457 51.964C389.969 51.964 390.401 52.088 390.753 52.336C391.113 52.584 391.389 52.932 391.581 53.38C391.773 53.82 391.869 54.344 391.869 54.952C391.869 55.624 391.745 56.2 391.497 56.68C391.249 57.152 390.925 57.516 390.525 57.772C390.133 58.02 389.709 58.144 389.253 58.144ZM388.977 57.004C389.249 57.004 389.497 56.928 389.721 56.776C389.945 56.624 390.121 56.4 390.249 56.104C390.377 55.8 390.441 55.424 390.441 54.976C390.441 54.584 390.393 54.248 390.297 53.968C390.201 53.688 390.053 53.476 389.853 53.332C389.661 53.18 389.401 53.104 389.073 53.104C388.849 53.104 388.621 53.16 388.389 53.272C388.157 53.384 387.921 53.564 387.681 53.812V56.464C387.897 56.656 388.121 56.796 388.353 56.884C388.585 56.964 388.793 57.004 388.977 57.004ZM396.136 58.144C395.584 58.144 395.056 58.056 394.552 57.88C394.048 57.696 393.612 57.48 393.244 57.232L393.844 56.356C394.196 56.588 394.576 56.772 394.984 56.908C395.392 57.036 395.836 57.1 396.316 57.1C396.724 57.1 397.024 57.032 397.216 56.896C397.416 56.752 397.516 56.584 397.516 56.392C397.516 56.296 397.492 56.208 397.444 56.128C397.404 56.048 397.328 55.976 397.216 55.912C397.104 55.84 396.94 55.772 396.724 55.708C396.508 55.644 396.228 55.576 395.884 55.504C395.1 55.336 394.524 55.108 394.156 54.82C393.788 54.532 393.604 54.168 393.604 53.728C393.604 53.208 393.828 52.784 394.276 52.456C394.732 52.128 395.372 51.964 396.196 51.964C396.684 51.964 397.14 52.044 397.564 52.204C397.996 52.364 398.36 52.544 398.656 52.744L398.02 53.596C397.74 53.404 397.432 53.26 397.096 53.164C396.76 53.06 396.42 53.008 396.076 53.008C395.812 53.008 395.6 53.036 395.44 53.092C395.288 53.148 395.172 53.228 395.092 53.332C395.02 53.428 394.984 53.536 394.984 53.656C394.984 53.864 395.104 54.02 395.344 54.124C395.584 54.228 395.976 54.34 396.52 54.46C397.152 54.596 397.64 54.752 397.984 54.928C398.328 55.096 398.564 55.292 398.692 55.516C398.828 55.732 398.896 56 398.896 56.32C398.896 56.656 398.788 56.964 398.572 57.244C398.364 57.516 398.056 57.736 397.648 57.904C397.24 58.064 396.736 58.144 396.136 58.144ZM403.823 58.144C403.207 58.144 402.651 58.024 402.155 57.784C401.667 57.536 401.279 57.184 400.991 56.728C400.711 56.264 400.571 55.708 400.571 55.06C400.571 54.404 400.723 53.848 401.027 53.392C401.339 52.928 401.751 52.576 402.263 52.336C402.775 52.088 403.327 51.964 403.919 51.964C404.399 51.964 404.823 52.044 405.191 52.204C405.559 52.356 405.863 52.552 406.103 52.792L405.443 53.656C405.211 53.472 404.975 53.332 404.735 53.236C404.503 53.14 404.255 53.092 403.991 53.092C403.599 53.092 403.251 53.176 402.947 53.344C402.651 53.504 402.419 53.732 402.251 54.028C402.083 54.324 401.999 54.668 401.999 55.06C401.999 55.452 402.079 55.796 402.239 56.092C402.407 56.388 402.635 56.616 402.923 56.776C403.219 56.936 403.563 57.016 403.955 57.016C404.291 57.016 404.599 56.952 404.879 56.824C405.159 56.696 405.411 56.544 405.635 56.368L406.211 57.256C405.875 57.544 405.499 57.764 405.083 57.916C404.667 58.068 404.247 58.144 403.823 58.144ZM408.451 58V52.108H409.591L409.711 53.44H409.747C410.043 52.96 410.407 52.596 410.839 52.348C411.279 52.092 411.751 51.964 412.255 51.964C412.495 51.964 412.703 51.984 412.879 52.024C413.055 52.064 413.227 52.124 413.395 52.204L413.107 53.368C412.915 53.304 412.743 53.26 412.591 53.236C412.447 53.204 412.263 53.188 412.039 53.188C411.639 53.188 411.247 53.304 410.863 53.536C410.487 53.768 410.147 54.172 409.843 54.748V58H408.451ZM417.65 58V53.2H415.094V52.108H419.03V58H417.65ZM418.238 51.028C417.958 51.028 417.722 50.944 417.53 50.776C417.346 50.608 417.254 50.384 417.254 50.104C417.254 49.824 417.346 49.6 417.53 49.432C417.722 49.256 417.958 49.168 418.238 49.168C418.526 49.168 418.762 49.256 418.946 49.432C419.13 49.6 419.222 49.824 419.222 50.104C419.222 50.384 419.13 50.608 418.946 50.776C418.762 50.944 418.526 51.028 418.238 51.028ZM425.229 58.144C424.949 58.144 424.657 58.076 424.353 57.94C424.057 57.804 423.777 57.608 423.513 57.352H423.477L423.357 58H422.265V49.528H423.657V51.712L423.597 52.744H423.633C423.881 52.504 424.161 52.316 424.473 52.18C424.793 52.036 425.113 51.964 425.433 51.964C425.945 51.964 426.377 52.088 426.729 52.336C427.089 52.584 427.365 52.932 427.557 53.38C427.749 53.82 427.845 54.344 427.845 54.952C427.845 55.624 427.721 56.2 427.473 56.68C427.225 57.152 426.901 57.516 426.501 57.772C426.109 58.02 425.685 58.144 425.229 58.144ZM424.953 57.004C425.225 57.004 425.473 56.928 425.697 56.776C425.921 56.624 426.097 56.4 426.225 56.104C426.353 55.8 426.417 55.424 426.417 54.976C426.417 54.584 426.369 54.248 426.273 53.968C426.177 53.688 426.029 53.476 425.829 53.332C425.637 53.18 425.377 53.104 425.049 53.104C424.825 53.104 424.597 53.16 424.365 53.272C424.133 53.384 423.897 53.564 423.657 53.812V56.464C423.873 56.656 424.097 56.796 424.329 56.884C424.561 56.964 424.769 57.004 424.953 57.004ZM432.437 58.144C431.837 58.144 431.293 58.024 430.805 57.784C430.317 57.536 429.929 57.184 429.641 56.728C429.353 56.264 429.209 55.704 429.209 55.048C429.209 54.408 429.353 53.86 429.641 53.404C429.929 52.94 430.305 52.584 430.769 52.336C431.233 52.088 431.729 51.964 432.257 51.964C432.841 51.964 433.333 52.084 433.733 52.324C434.141 52.564 434.449 52.896 434.657 53.32C434.873 53.736 434.981 54.216 434.981 54.76C434.981 54.896 434.973 55.028 434.957 55.156C434.949 55.276 434.937 55.376 434.921 55.456H430.205V54.472H434.033L433.769 54.784C433.769 54.2 433.637 53.764 433.373 53.476C433.117 53.18 432.757 53.032 432.293 53.032C431.965 53.032 431.669 53.108 431.405 53.26C431.149 53.412 430.945 53.64 430.793 53.944C430.641 54.24 430.565 54.608 430.565 55.048C430.565 55.504 430.649 55.88 430.817 56.176C430.993 56.472 431.233 56.696 431.537 56.848C431.849 57 432.209 57.076 432.617 57.076C432.929 57.076 433.217 57.032 433.481 56.944C433.745 56.856 434.009 56.736 434.273 56.584L434.741 57.448C434.429 57.648 434.077 57.816 433.685 57.952C433.293 58.08 432.877 58.144 432.437 58.144ZM438.828 58.144C438.076 58.144 437.468 57.872 437.004 57.328C436.54 56.784 436.308 56.028 436.308 55.06C436.308 54.42 436.432 53.868 436.68 53.404C436.928 52.94 437.252 52.584 437.652 52.336C438.052 52.088 438.472 51.964 438.912 51.964C439.248 51.964 439.544 52.024 439.8 52.144C440.064 52.264 440.308 52.436 440.532 52.66H440.568L440.496 51.664V49.528H441.888V58H440.748L440.64 57.316H440.604C440.38 57.54 440.112 57.736 439.8 57.904C439.488 58.064 439.164 58.144 438.828 58.144ZM439.164 57.004C439.404 57.004 439.636 56.948 439.86 56.836C440.084 56.716 440.296 56.536 440.496 56.296V53.644C440.288 53.444 440.08 53.304 439.872 53.224C439.664 53.144 439.452 53.104 439.236 53.104C438.964 53.104 438.712 53.18 438.48 53.332C438.256 53.484 438.076 53.704 437.94 53.992C437.804 54.28 437.736 54.632 437.736 55.048C437.736 55.68 437.86 56.164 438.108 56.5C438.364 56.836 438.716 57.004 439.164 57.004Z" fill="#1F69FF"/>
<path d="M343.276 84V76.152H345.34C346.108 76.152 346.768 76.296 347.32 76.584C347.88 76.872 348.304 77.304 348.592 77.88C348.888 78.456 349.036 79.176 349.036 80.04C349.036 80.912 348.888 81.644 348.592 82.236C348.304 82.82 347.888 83.26 347.344 83.556C346.8 83.852 346.156 84 345.412 84H343.276ZM344.668 82.872H345.256C345.76 82.872 346.184 82.772 346.528 82.572C346.88 82.364 347.148 82.052 347.332 81.636C347.516 81.22 347.608 80.688 347.608 80.04C347.608 79.4 347.516 78.876 347.332 78.468C347.148 78.06 346.88 77.76 346.528 77.568C346.184 77.376 345.76 77.28 345.256 77.28H344.668V82.872ZM353.495 84.144C352.895 84.144 352.351 84.024 351.863 83.784C351.375 83.536 350.987 83.184 350.699 82.728C350.411 82.264 350.267 81.704 350.267 81.048C350.267 80.408 350.411 79.86 350.699 79.404C350.987 78.94 351.363 78.584 351.827 78.336C352.291 78.088 352.787 77.964 353.315 77.964C353.899 77.964 354.391 78.084 354.791 78.324C355.199 78.564 355.507 78.896 355.715 79.32C355.931 79.736 356.039 80.216 356.039 80.76C356.039 80.896 356.031 81.028 356.015 81.156C356.007 81.276 355.995 81.376 355.979 81.456H351.263V80.472H355.091L354.827 80.784C354.827 80.2 354.695 79.764 354.431 79.476C354.175 79.18 353.815 79.032 353.351 79.032C353.023 79.032 352.727 79.108 352.463 79.26C352.207 79.412 352.003 79.64 351.851 79.944C351.699 80.24 351.623 80.608 351.623 81.048C351.623 81.504 351.707 81.88 351.875 82.176C352.051 82.472 352.291 82.696 352.595 82.848C352.907 83 353.267 83.076 353.675 83.076C353.987 83.076 354.275 83.032 354.539 82.944C354.803 82.856 355.067 82.736 355.331 82.584L355.799 83.448C355.487 83.648 355.135 83.816 354.743 83.952C354.351 84.08 353.935 84.144 353.495 84.144ZM360.858 84.144C360.242 84.144 359.686 84.024 359.19 83.784C358.702 83.536 358.314 83.184 358.026 82.728C357.746 82.264 357.606 81.708 357.606 81.06C357.606 80.404 357.758 79.848 358.062 79.392C358.374 78.928 358.786 78.576 359.298 78.336C359.81 78.088 360.362 77.964 360.954 77.964C361.434 77.964 361.858 78.044 362.226 78.204C362.594 78.356 362.898 78.552 363.138 78.792L362.478 79.656C362.246 79.472 362.01 79.332 361.77 79.236C361.538 79.14 361.29 79.092 361.026 79.092C360.634 79.092 360.286 79.176 359.982 79.344C359.686 79.504 359.454 79.732 359.286 80.028C359.118 80.324 359.034 80.668 359.034 81.06C359.034 81.452 359.114 81.796 359.274 82.092C359.442 82.388 359.67 82.616 359.958 82.776C360.254 82.936 360.598 83.016 360.99 83.016C361.326 83.016 361.634 82.952 361.914 82.824C362.194 82.696 362.446 82.544 362.67 82.368L363.246 83.256C362.91 83.544 362.534 83.764 362.118 83.916C361.702 84.068 361.282 84.144 360.858 84.144ZM367.49 84V79.2H364.934V78.108H368.87V84H367.49ZM368.078 77.028C367.798 77.028 367.562 76.944 367.37 76.776C367.186 76.608 367.094 76.384 367.094 76.104C367.094 75.824 367.186 75.6 367.37 75.432C367.562 75.256 367.798 75.168 368.078 75.168C368.366 75.168 368.602 75.256 368.786 75.432C368.97 75.6 369.062 75.824 369.062 76.104C369.062 76.384 368.97 76.608 368.786 76.776C368.602 76.944 368.366 77.028 368.078 77.028ZM374.757 84.144C374.205 84.144 373.677 84.056 373.173 83.88C372.669 83.696 372.233 83.48 371.865 83.232L372.465 82.356C372.817 82.588 373.197 82.772 373.605 82.908C374.013 83.036 374.457 83.1 374.937 83.1C375.345 83.1 375.645 83.032 375.837 82.896C376.037 82.752 376.137 82.584 376.137 82.392C376.137 82.296 376.113 82.208 376.065 82.128C376.025 82.048 375.949 81.976 375.837 81.912C375.725 81.84 375.561 81.772 375.345 81.708C375.129 81.644 374.849 81.576 374.505 81.504C373.721 81.336 373.145 81.108 372.777 80.82C372.409 80.532 372.225 80.168 372.225 79.728C372.225 79.208 372.449 78.784 372.897 78.456C373.353 78.128 373.993 77.964 374.817 77.964C375.305 77.964 375.761 78.044 376.185 78.204C376.617 78.364 376.981 78.544 377.277 78.744L376.641 79.596C376.361 79.404 376.053 79.26 375.717 79.164C375.381 79.06 375.041 79.008 374.697 79.008C374.433 79.008 374.221 79.036 374.061 79.092C373.909 79.148 373.793 79.228 373.713 79.332C373.641 79.428 373.605 79.536 373.605 79.656C373.605 79.864 373.725 80.02 373.965 80.124C374.205 80.228 374.597 80.34 375.141 80.46C375.773 80.596 376.261 80.752 376.605 80.928C376.949 81.096 377.185 81.292 377.313 81.516C377.449 81.732 377.517 82 377.517 82.32C377.517 82.656 377.409 82.964 377.193 83.244C376.985 83.516 376.677 83.736 376.269 83.904C375.861 84.064 375.357 84.144 374.757 84.144ZM381.88 84V79.2H379.324V78.108H383.26V84H381.88ZM382.468 77.028C382.188 77.028 381.952 76.944 381.76 76.776C381.576 76.608 381.484 76.384 381.484 76.104C381.484 75.824 381.576 75.6 381.76 75.432C381.952 75.256 382.188 75.168 382.468 75.168C382.756 75.168 382.992 75.256 383.176 75.432C383.36 75.6 383.452 75.824 383.452 76.104C383.452 76.384 383.36 76.608 383.176 76.776C382.992 76.944 382.756 77.028 382.468 77.028ZM389.112 84.144C388.592 84.144 388.108 84.024 387.66 83.784C387.212 83.536 386.848 83.184 386.568 82.728C386.288 82.264 386.148 81.708 386.148 81.06C386.148 80.404 386.288 79.848 386.568 79.392C386.848 78.928 387.212 78.576 387.66 78.336C388.108 78.088 388.592 77.964 389.112 77.964C389.632 77.964 390.116 78.088 390.564 78.336C391.012 78.576 391.376 78.928 391.656 79.392C391.936 79.848 392.076 80.404 392.076 81.06C392.076 81.708 391.936 82.264 391.656 82.728C391.376 83.184 391.012 83.536 390.564 83.784C390.116 84.024 389.632 84.144 389.112 84.144ZM389.112 83.016C389.432 83.016 389.708 82.936 389.94 82.776C390.172 82.616 390.348 82.388 390.468 82.092C390.588 81.796 390.648 81.452 390.648 81.06C390.648 80.668 390.588 80.324 390.468 80.028C390.348 79.732 390.172 79.504 389.94 79.344C389.708 79.176 389.432 79.092 389.112 79.092C388.792 79.092 388.516 79.176 388.284 79.344C388.06 79.504 387.884 79.732 387.756 80.028C387.636 80.324 387.576 80.668 387.576 81.06C387.576 81.452 387.636 81.796 387.756 82.092C387.884 82.388 388.06 82.616 388.284 82.776C388.516 82.936 388.792 83.016 389.112 83.016ZM393.691 84V78.108H394.831L394.939 78.996H394.987C395.267 78.708 395.575 78.464 395.911 78.264C396.255 78.064 396.655 77.964 397.111 77.964C397.791 77.964 398.291 78.172 398.611 78.588C398.931 79.004 399.091 79.592 399.091 80.352V84H397.699V80.532C397.699 80.06 397.615 79.712 397.447 79.488C397.279 79.264 396.995 79.152 396.595 79.152C396.307 79.152 396.051 79.22 395.827 79.356C395.603 79.492 395.355 79.7 395.083 79.98V84H393.691ZM408.13 84V76.152H410.566C411.102 76.152 411.578 76.216 411.994 76.344C412.418 76.464 412.75 76.664 412.99 76.944C413.23 77.224 413.35 77.604 413.35 78.084C413.35 78.452 413.238 78.8 413.014 79.128C412.798 79.448 412.458 79.668 411.994 79.788V79.836C412.562 79.932 412.998 80.132 413.302 80.436C413.606 80.74 413.758 81.16 413.758 81.696C413.758 82.216 413.63 82.648 413.374 82.992C413.118 83.336 412.762 83.592 412.306 83.76C411.858 83.92 411.346 84 410.77 84H408.13ZM409.522 79.38H410.446C410.99 79.38 411.382 79.284 411.622 79.092C411.862 78.9 411.982 78.62 411.982 78.252C411.982 77.892 411.858 77.64 411.61 77.496C411.362 77.344 410.982 77.268 410.47 77.268H409.522V79.38ZM409.522 82.884H410.626C411.202 82.884 411.638 82.784 411.934 82.584C412.238 82.376 412.39 82.048 412.39 81.6C412.39 81.192 412.242 80.896 411.946 80.712C411.65 80.528 411.21 80.436 410.626 80.436H409.522V82.884ZM417.893 84.144C417.373 84.144 416.889 84.024 416.441 83.784C415.993 83.536 415.629 83.184 415.349 82.728C415.069 82.264 414.929 81.708 414.929 81.06C414.929 80.404 415.069 79.848 415.349 79.392C415.629 78.928 415.993 78.576 416.441 78.336C416.889 78.088 417.373 77.964 417.893 77.964C418.413 77.964 418.897 78.088 419.345 78.336C419.793 78.576 420.157 78.928 420.437 79.392C420.717 79.848 420.857 80.404 420.857 81.06C420.857 81.708 420.717 82.264 420.437 82.728C420.157 83.184 419.793 83.536 419.345 83.784C418.897 84.024 418.413 84.144 417.893 84.144ZM417.893 83.016C418.213 83.016 418.489 82.936 418.721 82.776C418.953 82.616 419.129 82.388 419.249 82.092C419.369 81.796 419.429 81.452 419.429 81.06C419.429 80.668 419.369 80.324 419.249 80.028C419.129 79.732 418.953 79.504 418.721 79.344C418.489 79.176 418.213 79.092 417.893 79.092C417.573 79.092 417.297 79.176 417.065 79.344C416.841 79.504 416.665 79.732 416.537 80.028C416.417 80.324 416.357 80.668 416.357 81.06C416.357 81.452 416.417 81.796 416.537 82.092C416.665 82.388 416.841 82.616 417.065 82.776C417.297 82.936 417.573 83.016 417.893 83.016ZM424.296 84.144C423.608 84.144 423.108 83.936 422.796 83.52C422.484 83.104 422.328 82.516 422.328 81.756V78.108H423.708V81.576C423.708 82.048 423.788 82.396 423.948 82.62C424.116 82.844 424.404 82.956 424.812 82.956C425.084 82.956 425.332 82.892 425.556 82.764C425.788 82.628 426.032 82.4 426.288 82.08V78.108H427.668V84H426.54L426.432 83.064H426.384C426.104 83.384 425.796 83.644 425.46 83.844C425.124 84.044 424.736 84.144 424.296 84.144ZM429.668 84V78.108H430.808L430.916 78.996H430.964C431.244 78.708 431.552 78.464 431.888 78.264C432.232 78.064 432.632 77.964 433.088 77.964C433.768 77.964 434.268 78.172 434.588 78.588C434.908 79.004 435.068 79.592 435.068 80.352V84H433.676V80.532C433.676 80.06 433.592 79.712 433.424 79.488C433.256 79.264 432.972 79.152 432.572 79.152C432.284 79.152 432.028 79.22 431.804 79.356C431.58 79.492 431.332 79.7 431.06 79.98V84H429.668ZM439.035 84.144C438.283 84.144 437.675 83.872 437.211 83.328C436.747 82.784 436.515 82.028 436.515 81.06C436.515 80.42 436.639 79.868 436.887 79.404C437.135 78.94 437.459 78.584 437.859 78.336C438.259 78.088 438.679 77.964 439.119 77.964C439.455 77.964 439.751 78.024 440.007 78.144C440.271 78.264 440.515 78.436 440.739 78.66H440.775L440.703 77.664V75.528H442.095V84H440.955L440.847 83.316H440.811C440.587 83.54 440.319 83.736 440.007 83.904C439.695 84.064 439.371 84.144 439.035 84.144ZM439.371 83.004C439.611 83.004 439.843 82.948 440.067 82.836C440.291 82.716 440.503 82.536 440.703 82.296V79.644C440.495 79.444 440.287 79.304 440.079 79.224C439.871 79.144 439.659 79.104 439.443 79.104C439.171 79.104 438.919 79.18 438.687 79.332C438.463 79.484 438.283 79.704 438.147 79.992C438.011 80.28 437.943 80.632 437.943 81.048C437.943 81.68 438.067 82.164 438.315 82.5C438.571 82.836 438.923 83.004 439.371 83.004ZM445.894 84.144C445.51 84.144 445.17 84.072 444.874 83.928C444.578 83.776 444.346 83.572 444.178 83.316C444.01 83.06 443.926 82.76 443.926 82.416C443.926 81.76 444.238 81.26 444.862 80.916C445.494 80.564 446.538 80.336 447.994 80.232C447.978 80.016 447.918 79.82 447.814 79.644C447.718 79.468 447.57 79.332 447.37 79.236C447.17 79.132 446.91 79.08 446.59 79.08C446.366 79.08 446.146 79.108 445.93 79.164C445.714 79.22 445.498 79.296 445.282 79.392C445.074 79.488 444.866 79.592 444.658 79.704L444.154 78.78C444.394 78.636 444.658 78.504 444.946 78.384C445.234 78.256 445.538 78.156 445.858 78.084C446.178 78.004 446.506 77.964 446.842 77.964C447.394 77.964 447.854 78.064 448.222 78.264C448.598 78.456 448.882 78.744 449.074 79.128C449.274 79.504 449.374 79.964 449.374 80.508V84H448.246L448.138 83.268H448.102C447.79 83.508 447.442 83.716 447.058 83.892C446.682 84.06 446.294 84.144 445.894 84.144ZM446.314 83.064C446.61 83.064 446.894 83 447.166 82.872C447.446 82.736 447.722 82.56 447.994 82.344V81.096C447.29 81.144 446.738 81.224 446.338 81.336C445.938 81.44 445.658 81.576 445.498 81.744C445.338 81.912 445.258 82.1 445.258 82.308C445.258 82.484 445.306 82.628 445.402 82.74C445.498 82.852 445.622 82.936 445.774 82.992C445.934 83.04 446.114 83.064 446.314 83.064ZM451.83 84V78.108H452.97L453.09 79.44H453.126C453.422 78.96 453.786 78.596 454.218 78.348C454.658 78.092 455.13 77.964 455.634 77.964C455.874 77.964 456.082 77.984 456.258 78.024C456.434 78.064 456.606 78.124 456.774 78.204L456.486 79.368C456.294 79.304 456.122 79.26 455.97 79.236C455.826 79.204 455.642 79.188 455.418 79.188C455.018 79.188 454.626 79.304 454.242 79.536C453.866 79.768 453.526 80.172 453.222 80.748V84H451.83ZM459.109 86.424C458.957 86.424 458.805 86.412 458.653 86.388C458.509 86.364 458.381 86.336 458.269 86.304L458.533 85.224C458.613 85.248 458.693 85.268 458.773 85.284C458.861 85.3 458.945 85.308 459.025 85.308C459.401 85.308 459.701 85.212 459.925 85.02C460.149 84.828 460.321 84.588 460.441 84.3L460.585 83.928L457.945 78.108H459.325L460.537 81C460.641 81.264 460.749 81.544 460.861 81.84C460.973 82.136 461.081 82.432 461.185 82.728H461.233C461.329 82.448 461.425 82.16 461.521 81.864C461.625 81.56 461.725 81.272 461.821 81L462.889 78.108H464.197L461.737 84.264C461.577 84.704 461.381 85.084 461.149 85.404C460.917 85.732 460.637 85.984 460.309 86.16C459.981 86.336 459.581 86.424 459.109 86.424Z" fill="#C74E4E"/>
<path d="M64 162L281 190" stroke="#C74E4E" stroke-width="3" stroke-linecap="round"/>
</svg>
